<?xml version="1.0" standalone="no"?>
<!DOCTYPE svg PUBLIC "-//W3C//DTD SVG 20010904//EN"
 "http://www.w3.org/TR/2001/REC-SVG-20010904/DTD/svg10.dtd">
<svg version="1.0" xmlns="http://www.w3.org/2000/svg"
 width="1080.000000pt" height="608.000000pt" viewBox="0 0 1080.000000 608.000000"
 preserveAspectRatio="xMidYMid meet">

<g transform="translate(0.000000,608.000000) scale(0.100000,-0.100000)"
fill="#000000" stroke="none">
<path d="M237 5928 c19 -84 41 -189 49 -233 8 -44 21 -105 28 -135 7 -30 21
-93 31 -140 9 -47 30 -139 45 -205 16 -66 31 -138 34 -160 14 -106 77 -379 88
-386 21 -13 32 7 19 38 -6 16 -25 94 -42 173 -16 80 -32 154 -35 165 -3 11
-10 41 -14 67 -5 26 -15 73 -24 105 -8 32 -22 99 -32 148 -9 50 -23 115 -31
145 -8 30 -20 87 -28 125 -8 39 -19 88 -24 110 -6 22 -13 54 -16 70 -27 137
-61 265 -70 265 -7 0 1 -55 22 -152z"/>
<path d="M2071 5983 c-24 -206 -72 -816 -85 -1068 -6 -101 -18 -249 -62 -745
-29 -336 -44 -499 -89 -960 -3 -30 -12 -136 -20 -235 -8 -99 -22 -254 -30
-345 -8 -91 -19 -214 -25 -275 -5 -60 -30 -330 -55 -600 -25 -269 -50 -542
-56 -605 -23 -259 -36 -370 -43 -377 -4 -5 -93 -10 -197 -12 l-189 -3 0 62 c0
34 5 103 10 153 22 203 75 777 90 987 10 131 44 498 70 755 5 55 14 152 20
215 6 63 15 156 21 205 5 50 14 153 20 230 5 77 12 172 15 210 l6 70 -223 225
c-286 288 -420 428 -489 510 -122 146 -209 216 -202 164 2 -13 -4 -24 -14 -28
-19 -7 -212 11 -229 22 -5 3 -44 7 -85 8 -106 2 -110 3 -110 13 0 5 10 12 23
16 18 5 11 9 -36 20 -31 7 -68 10 -81 8 -20 -4 -24 -11 -24 -51 -1 -45 1 -48
36 -64 20 -9 60 -16 87 -16 28 0 96 -7 152 -16 57 -9 122 -16 145 -16 71 0 84
-9 146 -94 34 -45 73 -93 89 -107 30 -28 412 -418 477 -487 21 -23 35 -42 30
-42 -13 1 -116 80 -182 141 -32 30 -92 83 -132 119 -40 36 -114 104 -164 152
-117 110 -159 148 -169 148 -5 0 -23 -11 -40 -24 -42 -32 -99 -42 -147 -26
-81 27 -88 -12 -11 -61 l46 -29 -72 0 c-39 0 -74 -4 -78 -9 -6 -11 14 -61 25
-61 4 0 21 7 38 15 35 18 79 11 86 -13 3 -10 8 -39 12 -67 5 -42 14 -57 53
-95 25 -25 49 -44 53 -42 4 1 13 -8 19 -20 6 -12 43 -54 81 -92 70 -71 114
-138 103 -156 -8 -13 -55 8 -143 63 -40 26 -76 47 -81 47 -5 0 -14 6 -20 14
-11 13 -56 28 -133 43 -15 3 -25 9 -22 14 3 5 -2 9 -10 9 -9 0 -13 -6 -10 -13
3 -8 -2 -14 -11 -14 -8 0 -15 6 -15 13 0 8 -11 13 -27 12 -41 -1 -114 12 -136
24 -11 5 -33 14 -48 18 l-29 9 0 -1644 0 -1644 528 -1 c721 -1 984 -7 1046
-25 37 -10 83 -13 166 -9 63 2 205 6 315 7 110 2 232 9 270 16 54 9 79 10 112
0 29 -8 83 -9 175 -4 159 8 250 8 341 0 44 -5 100 -1 160 9 73 12 111 14 177
6 47 -5 133 -10 193 -10 59 0 107 -3 107 -7 0 -4 -10 -17 -22 -30 -22 -24 -27
-57 -14 -107 7 -28 8 -28 62 -24 50 4 59 9 97 50 l42 45 117 7 c77 5 124 4
137 -3 11 -6 32 -11 48 -11 15 0 66 -12 112 -27 76 -24 87 -25 110 -12 16 9
27 25 29 42 3 26 6 27 58 27 30 0 54 4 54 8 0 14 -67 41 -89 35 -32 -8 -33 42
-1 67 11 8 21 29 24 45 5 30 38 65 61 65 24 0 47 -40 54 -91 8 -70 27 -73 54
-10 22 53 41 66 88 59 18 -2 27 -13 37 -46 8 -24 20 -42 29 -42 8 0 12 -4 9
-8 -9 -14 61 -4 100 15 33 16 64 54 90 111 9 19 39 14 66 -11 17 -16 28 -39
32 -70 5 -34 12 -47 24 -48 111 -4 217 1 220 10 2 6 12 11 23 11 13 0 19 7 19
22 0 26 76 108 100 108 8 0 23 -7 34 -15 16 -12 22 -11 46 7 35 25 80 18 80
-12 0 -26 34 -44 59 -31 10 6 26 22 35 36 11 17 25 25 45 25 24 0 32 -8 54
-54 28 -57 38 -64 100 -68 25 -1 42 -9 48 -20 13 -23 110 -24 234 -3 48 9 92
14 98 13 7 -1 22 3 35 10 16 9 22 22 22 48 0 24 5 37 18 41 9 3 25 13 34 21
15 13 19 12 32 -1 12 -11 30 -14 74 -10 39 4 62 2 66 -6 4 -6 2 -11 -4 -11 -7
0 -5 -6 4 -15 22 -23 9 -44 -32 -51 -21 -3 -40 -6 -44 -7 -4 -1 -4 -7 0 -14 5
-7 37 -13 79 -15 60 -2 76 0 100 18 15 11 30 32 33 45 5 20 12 24 44 24 35 0
39 -3 51 -39 12 -34 12 -43 -1 -69 -9 -16 -13 -31 -10 -35 3 -3 32 -4 63 -3
51 2 110 -12 123 -30 5 -6 78 -13 108 -10 7 0 10 6 7 11 -3 6 -30 10 -58 10
-59 0 -75 15 -83 76 -5 45 10 74 41 74 40 0 54 -11 61 -46 3 -19 15 -39 25
-45 11 -5 19 -19 19 -31 0 -17 4 -19 28 -13 15 4 41 7 57 8 17 1 35 5 40 9 20
13 134 38 171 38 22 0 46 -4 54 -10 11 -7 9 -11 -13 -19 -45 -17 -32 -33 26
-31 28 2 57 2 62 1 6 0 9 -39 9 -97 -2 -87 0 -96 20 -109 29 -18 108 -25 351
-30 188 -4 237 -8 365 -32 19 -3 44 -11 55 -18 11 -6 40 -18 65 -25 64 -19 76
-34 20 -26 -79 13 -85 12 -95 -11 -11 -26 -51 -42 -104 -44 -30 -1 -26 -3 19
-10 30 -5 82 -7 115 -4 69 6 130 -5 130 -23 0 -7 6 -17 14 -21 8 -5 11 -16 6
-30 -7 -24 10 -35 47 -28 l23 4 -22 8 c-13 4 -23 11 -23 16 0 12 91 -1 117
-17 17 -11 174 -13 854 -14 458 0 829 3 824 8 -6 5 -75 23 -155 41 -80 19
-158 37 -175 42 -16 4 -77 18 -135 30 -58 12 -175 39 -260 61 -85 21 -207 49
-270 63 -113 23 -300 66 -370 85 -44 12 -194 46 -240 55 -52 10 -620 152 -668
167 -41 13 -42 14 -43 58 -1 65 -12 94 -37 105 -13 6 -22 19 -22 32 0 12 -5
25 -11 29 -8 4 -7 9 2 15 8 5 9 9 3 9 -16 0 -26 104 -24 260 1 74 2 268 3 431
2 233 5 299 16 312 7 9 11 23 8 31 -3 7 -1 47 4 87 5 41 6 75 1 77 -4 1 -6 20
-4 42 3 25 0 40 -7 40 -6 0 -11 8 -11 19 0 10 -7 24 -15 31 -8 7 -15 20 -15
30 0 9 -9 25 -20 35 -20 18 -71 18 -151 -1 -24 -5 -27 -2 -47 60 -12 37 -22
72 -22 80 0 7 -9 21 -21 32 l-21 19 7 -50 c3 -28 9 -62 11 -77 4 -18 0 -29
-13 -37 -17 -10 -16 -12 7 -31 21 -17 23 -21 10 -30 -8 -5 -19 -10 -23 -10 -5
0 -7 -10 -5 -22 2 -17 10 -23 28 -23 14 0 25 -6 24 -12 -1 -7 -2 -28 -2 -47
-1 -19 -9 -41 -17 -50 -24 -24 -19 -37 11 -26 14 6 27 10 29 10 5 0 15 -55 19
-108 2 -24 9 -49 15 -55 14 -14 15 -94 1 -102 -15 -10 -12 -35 5 -35 8 0 15
-6 15 -14 0 -18 -65 -27 -205 -29 -109 -2 -168 13 -163 42 2 12 13 15 40 13
28 -3 38 1 42 16 4 10 20 28 36 40 37 27 38 42 5 42 -14 0 -25 -3 -25 -8 0
-14 -108 -72 -133 -72 -16 0 -36 12 -55 34 -40 46 -49 74 -26 90 11 9 13 15 6
20 -6 4 -18 -6 -27 -24 -18 -35 -35 -39 -35 -7 0 12 -10 55 -22 95 -24 81 -20
92 32 84 27 -4 30 -8 30 -39 0 -45 16 -73 40 -73 15 0 20 7 20 29 0 17 -4 33
-10 36 -5 3 -10 24 -10 46 0 30 7 47 26 66 22 22 25 32 20 64 -3 22 -9 57 -12
79 -4 27 -1 51 10 75 16 32 15 36 -5 74 -12 24 -28 41 -38 41 -26 0 -51 -32
-51 -66 -1 -42 -36 -115 -60 -121 -12 -3 -23 -17 -26 -32 -3 -14 -10 -42 -15
-61 -7 -25 -7 -44 1 -64 11 -30 6 -43 -20 -46 -32 -5 -40 1 -40 29 0 37 -17
49 -36 25 -16 -21 -12 -70 12 -165 8 -31 16 -87 18 -123 4 -64 17 -96 38 -96
6 0 7 11 4 25 -8 32 9 32 30 0 11 -18 14 -35 9 -65 -6 -35 -4 -40 12 -40 11 0
28 -6 39 -14 19 -14 19 -15 -2 -43 -11 -15 -23 -36 -27 -46 -3 -9 -11 -17 -16
-17 -16 0 -23 20 -12 34 6 7 8 16 4 19 -13 14 -23 7 -23 -15 0 -23 -1 -23
-127 -19 -142 4 -166 10 -225 61 -9 9 -40 24 -67 34 -27 10 -55 23 -60 30 -15
18 -2 79 15 72 20 -8 18 24 -2 39 -14 10 -15 15 -3 35 8 13 20 30 26 38 7 7
15 23 17 35 11 55 13 77 4 77 -5 0 -6 5 -3 10 4 6 11 8 16 5 5 -4 9 3 9 14 0
10 -4 21 -9 23 -8 3 -16 129 -13 212 2 40 19 61 117 144 44 37 52 39 79 13 27
-25 93 -43 99 -28 7 22 -3 310 -12 321 -5 6 -12 41 -16 79 -6 57 -4 67 9 67
14 0 16 17 16 119 0 67 -4 122 -10 126 -16 10 -88 -14 -204 -69 -61 -30 -126
-60 -143 -67 -33 -14 -37 -20 -34 -51 1 -9 -3 -19 -8 -23 -6 -3 -8 -20 -4 -38
3 -18 3 -29 -2 -25 -4 4 -18 3 -31 -2 -25 -10 -26 -9 -29 60 -1 27 -21 36 -62
25 -21 -5 -24 -10 -19 -33 l7 -27 -20 25 c-19 23 -21 24 -58 11 -21 -8 -41
-19 -45 -25 -4 -6 -8 -77 -8 -158 0 -165 1 -168 74 -168 30 0 40 -6 56 -32 21
-34 26 -93 11 -117 -14 -22 -63 8 -73 44 -11 42 -34 56 -82 49 -28 -4 -37 -3
-27 4 11 8 8 17 -18 49 -29 35 -30 38 -12 41 17 3 19 9 14 32 -3 16 0 44 6 61
7 20 9 58 5 97 -9 86 -46 132 -105 132 -94 0 -156 -64 -131 -133 7 -19 12 -47
12 -63 0 -16 9 -46 20 -67 29 -54 20 -100 -23 -113 -17 -5 -33 -15 -35 -23 -3
-10 0 -12 11 -8 10 4 23 -3 35 -20 15 -21 24 -25 45 -19 36 9 34 26 -1 26 -33
0 -43 7 -35 26 4 10 20 12 67 7 42 -4 66 -2 70 6 11 16 39 14 33 -3 -3 -8 1
-20 9 -26 8 -7 14 -20 14 -29 0 -10 11 -32 25 -51 24 -33 34 -80 16 -80 -5 0
-11 -20 -13 -45 -2 -32 1 -45 10 -45 9 0 11 7 7 21 -4 13 -3 19 3 16 10 -7 21
-78 26 -177 3 -65 23 -223 32 -249 3 -10 8 -10 18 -2 14 12 26 5 26 -15 0 -6
-12 -15 -27 -19 l-28 -8 25 -6 c23 -6 21 -9 -30 -34 -61 -30 -129 -35 -205
-15 -34 9 -47 18 -51 35 -4 13 -18 33 -33 44 -18 14 -26 31 -27 52 -4 204 -5
221 -14 207 -7 -10 -10 18 -10 88 0 108 -9 140 -49 176 -12 11 -21 25 -21 33
0 7 -4 13 -9 13 -12 0 -41 -75 -41 -108 0 -41 -15 -59 -34 -43 -11 9 -16 30
-16 67 0 59 -10 66 -47 35 -14 -12 -23 -33 -26 -64 -6 -51 -16 -74 -45 -100
-18 -17 -19 -22 -7 -69 8 -27 11 -56 9 -63 -7 -17 16 -31 25 -16 10 15 41 3
41 -15 0 -8 6 -14 14 -14 13 0 31 -63 24 -86 -1 -5 3 -18 8 -29 6 -11 14 -32
18 -46 5 -25 3 -27 -32 -34 -20 -4 -57 -16 -81 -27 -86 -39 -211 -62 -211 -38
0 6 11 10 24 10 19 0 26 6 30 27 10 56 2 87 -25 100 -25 12 -26 16 -19 50 5
21 5 44 -1 54 -5 10 -9 33 -9 52 0 19 -9 60 -20 91 -11 34 -17 69 -14 86 4 17
-1 48 -11 74 -13 34 -16 62 -12 106 3 38 1 58 -5 54 -5 -3 -18 2 -28 11 -17
16 -19 15 -26 -7 -4 -13 -8 -33 -10 -45 -1 -12 -15 -48 -30 -80 -22 -44 -29
-72 -29 -120 0 -65 4 -75 33 -78 46 -5 72 -24 72 -54 0 -15 7 -45 15 -64 8
-20 12 -43 9 -51 -3 -8 1 -52 10 -98 9 -46 15 -99 13 -118 l-2 -35 -79 -3
c-114 -4 -171 10 -222 58 -24 22 -54 42 -68 46 -14 3 -26 10 -26 15 0 5 -5 9
-10 9 -6 0 -23 12 -37 26 -22 22 -25 31 -18 67 18 108 18 110 4 105 -7 -2 -16
-15 -19 -29 -6 -23 -9 -24 -110 -27 -67 -2 -107 -7 -112 -15 -10 -17 -294 -35
-310 -19 -9 9 -8 12 6 12 13 0 16 5 11 18 -12 29 -15 190 -4 219 7 20 7 34 -2
51 -11 19 -11 25 0 31 8 6 11 27 9 67 -3 58 -3 59 25 62 35 4 30 26 -6 30 -20
3 -27 9 -27 26 0 32 11 39 26 18 9 -13 22 -17 43 -14 22 3 33 0 37 -12 10 -26
73 -20 119 11 65 43 96 71 85 78 -13 8 -13 52 1 60 5 4 14 18 19 31 8 19 17
24 45 24 26 0 35 -4 36 -17 0 -11 3 -13 6 -5 9 23 23 12 23 -20 0 -18 4 -40 9
-47 6 -9 6 -22 0 -34 -10 -17 -12 -17 -22 -2 -11 14 -14 12 -30 -15 -16 -27
-65 -56 -124 -74 -27 -8 -37 -51 -27 -109 4 -23 7 -48 5 -55 -1 -8 6 -16 16
-18 16 -4 19 -15 18 -70 0 -35 4 -64 8 -64 4 0 5 -30 1 -67 -5 -48 -3 -65 4
-58 6 6 12 26 14 45 l3 35 100 -3 c65 -2 105 -8 115 -17 13 -11 17 -11 28 1 7
8 32 14 55 15 89 2 82 -4 79 75 -3 49 1 80 11 100 8 16 22 63 32 104 22 89 49
140 76 140 11 0 24 11 31 25 13 29 15 29 48 10 29 -17 49 -18 69 -6 13 8 13
12 0 27 -12 15 -12 16 8 10 12 -4 31 -3 41 3 27 14 35 2 11 -18 -19 -16 -19
-19 -4 -111 15 -87 25 -124 25 -88 0 18 41 48 66 48 9 0 29 8 45 17 27 16 29
16 42 -1 7 -10 22 -16 33 -14 16 3 18 10 16 48 -2 25 -8 65 -14 90 -11 49 -11
545 0 695 5 67 11 90 21 90 18 0 28 -20 37 -70 7 -39 8 -38 15 29 12 113 14
116 57 116 145 -2 356 -21 371 -34 9 -8 39 -17 66 -21 61 -7 692 -48 721 -46
26 1 30 -20 40 -204 4 -71 8 -132 10 -134 10 -11 14 13 15 100 1 52 4 123 8
159 l7 65 12 -40 c7 -22 12 -53 13 -70 1 -22 4 -16 10 20 18 99 15 94 57 88
37 -6 121 -59 122 -77 0 -6 12 -27 26 -48 19 -27 28 -54 31 -100 5 -59 4 -64
-18 -73 -27 -11 -49 -50 -50 -86 -1 -99 4 -136 27 -181 35 -70 30 -108 -18
-131 -51 -23 -49 -37 3 -26 45 10 60 6 41 -13 -16 -16 -15 -38 2 -38 7 0 19 7
26 15 7 8 25 15 41 15 29 0 40 15 17 23 -8 2 6 22 35 50 42 41 47 50 47 91 0
28 6 51 17 61 23 23 27 139 6 183 -9 18 -23 37 -33 42 -23 12 -25 81 -4 180
28 139 55 213 90 248 19 19 28 31 21 29 -6 -2 -19 2 -29 10 -12 11 -85 18
-315 28 -164 8 -377 19 -473 25 -96 6 -328 19 -515 30 -804 47 -1346 82 -1905
124 -91 7 -169 10 -173 6 -11 -10 -18 -430 -7 -430 4 0 13 33 19 73 18 120 27
143 64 158 42 18 299 19 305 1 2 -7 10 -12 17 -12 25 0 29 -43 28 -304 l-1
-259 -36 -34 c-48 -46 -69 -88 -62 -125 4 -20 1 -30 -9 -34 -7 -3 -17 -19 -20
-35 -5 -23 -11 -28 -25 -24 -13 4 -22 -3 -34 -26 -9 -17 -13 -35 -11 -39 8
-13 -22 -141 -45 -193 -13 -28 -32 -53 -46 -59 -21 -10 -24 -18 -24 -59 0 -27
9 -72 20 -101 26 -69 26 -118 -2 -153 -21 -27 -21 -28 -2 -42 13 -10 19 -27
20 -56 1 -23 5 -60 9 -81 l8 -39 -74 6 c-41 4 -123 11 -184 16 -122 10 -217
30 -209 43 3 4 10 6 15 2 5 -3 45 -7 87 -8 43 -1 83 -6 89 -9 6 -4 14 0 17 9
5 14 16 16 64 11 52 -6 55 -5 32 7 -14 7 -48 16 -76 19 -28 3 -77 15 -110 27
-32 12 -64 22 -71 22 -7 1 -10 5 -8 8 4 7 -58 80 -68 80 -3 0 -7 -21 -10 -47
-2 -27 -10 -63 -18 -80 -10 -26 -11 -40 -2 -64 10 -26 9 -34 -11 -63 -20 -29
-23 -31 -36 -17 -12 13 -15 56 -16 226 0 243 1 229 -21 250 -15 15 -15 39 -4
288 40 935 50 1219 56 1627 3 195 12 477 20 625 19 360 30 729 30 1014 l0 235
-27 7 c-15 4 -51 9 -80 11 l-53 3 -6 -75 c-4 -41 -12 -115 -18 -163 -17 -137
-18 -285 -1 -332 11 -28 15 -79 14 -170 0 -114 -4 -139 -26 -204 -66 -184
-223 -331 -426 -400 -136 -46 -358 -46 -495 0 -153 52 -301 144 -369 232 -18
23 -35 44 -38 47 -4 3 -20 25 -36 50 -162 243 -145 561 42 770 l54 61 0 99 c0
80 -3 100 -14 100 -19 0 -29 33 -21 70 l7 30 -90 0 -90 0 -11 -97z m-1576
-1503 c4 -6 -6 -10 -22 -10 -22 0 -25 2 -13 10 19 12 27 12 35 0z m1830 -158
c7 -42 -9 -407 -25 -567 -5 -55 -15 -154 -20 -220 -6 -66 -20 -214 -31 -330
-10 -115 -26 -298 -34 -405 -34 -433 -61 -770 -75 -900 -5 -52 -23 -250 -40
-440 -17 -190 -35 -379 -40 -420 -5 -41 -9 -100 -10 -130 0 -30 -5 -72 -11
-92 l-10 -38 -64 0 -65 0 0 67 c0 37 4 117 10 177 21 242 40 468 50 606 6 80
15 183 20 230 5 47 12 123 15 170 7 105 52 619 65 755 6 55 15 154 20 220 5
66 16 194 24 285 14 151 40 456 66 785 14 161 30 266 42 259 4 -3 6 -10 3 -15
-10 -15 1 -10 31 16 44 38 71 33 79 -13z m1124 -44 c6 -7 17 -13 24 -13 31 0
32 -133 2 -830 -25 -591 -35 -806 -45 -965 -6 -85 -17 -299 -25 -475 -15 -304
-22 -448 -45 -895 -5 -107 -12 -219 -16 -247 l-5 -53 -101 0 -101 0 7 58 c15
132 38 562 56 1032 6 146 15 337 20 425 6 88 14 251 20 362 5 112 14 242 20
290 14 117 28 303 40 553 13 271 39 677 46 716 4 24 13 34 37 42 44 14 51 14
66 0z m-789 -177 c0 -5 8 -11 18 -13 24 -7 32 -55 26 -146 -2 -37 -9 -152 -14
-257 -6 -104 -13 -215 -15 -245 -2 -30 -11 -154 -20 -275 -8 -121 -19 -265
-25 -320 -5 -55 -12 -143 -15 -195 -3 -52 -12 -176 -20 -275 -8 -99 -17 -209
-19 -245 -11 -143 -25 -328 -30 -380 -3 -30 -10 -125 -16 -210 -22 -324 -51
-706 -57 -727 -5 -21 -11 -23 -79 -23 l-74 0 0 37 c0 51 18 340 30 493 20 243
40 516 45 615 3 55 8 118 11 140 3 22 7 74 10 115 12 194 26 388 39 525 8 83
17 188 20 235 4 47 15 182 25 300 11 118 29 325 40 460 12 135 25 261 30 280
4 19 11 48 15 64 5 22 9 26 15 16 7 -11 11 -10 24 3 9 8 16 20 16 26 0 6 5 11
10 11 6 0 10 -4 10 -9z m418 -47 c13 8 15 -10 13 -139 -3 -141 -23 -526 -47
-900 -8 -126 -19 -309 -24 -405 -5 -96 -16 -274 -24 -395 -9 -121 -20 -292
-26 -380 -6 -88 -15 -218 -20 -290 -5 -71 -17 -240 -25 -375 -9 -135 -19 -274
-23 -310 l-7 -65 -74 -3 c-41 -2 -77 1 -81 5 -10 12 8 357 40 768 11 138 37
531 50 750 5 83 21 317 35 520 14 204 30 438 35 520 15 244 30 423 46 543 8
62 14 116 14 120 0 4 4 1 9 -7 6 -10 16 -3 41 28 29 36 34 39 45 24 7 -9 17
-13 23 -9z m2009 -745 c11 -28 15 -30 42 -24 27 6 30 4 33 -22 2 -22 8 -27 23
-25 11 2 26 11 33 20 7 9 21 16 32 14 10 -2 21 2 25 8 7 11 45 14 45 3 -1 -16
-30 -46 -47 -48 -74 -9 -102 -19 -114 -41 -14 -28 -27 -31 -36 -8 -5 13 -7 13
-14 2 -17 -26 -9 -57 21 -78 35 -25 37 -40 10 -65 -15 -14 -20 -15 -20 -4 -1
21 -30 -63 -30 -86 0 -34 15 -46 66 -51 46 -5 48 -4 29 10 -17 14 -18 17 -5
26 8 5 21 8 28 5 8 -3 36 -5 63 -5 42 0 49 -3 49 -20 0 -11 5 -20 10 -20 6 0
10 -4 10 -10 0 -5 -7 -10 -16 -10 -9 0 -14 -7 -12 -17 2 -11 12 -18 26 -17 28
1 28 -2 0 -17 -17 -9 -24 -9 -32 3 -20 26 -57 40 -92 34 -60 -12 -123 -46
-139 -75 -16 -32 -23 -159 -10 -181 5 -8 12 -33 15 -55 4 -31 10 -40 24 -38
12 1 16 -4 13 -17 -3 -10 4 -23 15 -31 48 -34 53 -38 40 -39 -13 0 -58 26 -80
47 -20 20 -34 15 -20 -6 9 -15 9 -26 1 -43 -6 -14 -9 -37 -6 -51 8 -42 -55
-131 -103 -147 -30 -10 -38 -10 -45 1 -24 38 -37 136 -23 174 4 10 20 23 37
30 28 12 29 14 31 89 2 66 0 79 -16 87 -10 5 -70 9 -132 8 -63 0 -119 2 -125
6 -6 3 -11 20 -11 36 0 16 -7 41 -16 54 -20 31 -17 32 89 38 43 2 83 9 90 16
16 16 27 14 20 -5 -4 -12 0 -15 18 -13 13 1 31 -1 40 -5 9 -4 34 -6 55 -4 l38
3 4 153 c2 104 0 152 -7 152 -6 0 -11 -4 -11 -9 0 -17 -45 -60 -74 -71 -15 -5
-24 -15 -21 -21 4 -6 13 -8 21 -5 8 3 19 -4 25 -15 13 -26 4 -69 -16 -69 -8 0
-15 -4 -15 -10 0 -5 5 -10 11 -10 19 0 4 -23 -17 -25 -10 -1 -23 -4 -29 -5
-13 -4 -46 9 -67 28 -27 23 -23 69 8 97 15 14 23 25 18 25 -5 0 -10 24 -12 54
-2 44 0 55 15 60 17 7 16 9 -4 26 l-22 18 28 12 c21 8 35 9 49 1 12 -6 35 -11
52 -11 25 0 31 4 28 18 -2 10 -14 18 -30 20 -18 2 -27 10 -31 28 -4 23 -2 24
32 18 20 -4 43 -13 53 -21 12 -11 18 -12 24 -2 10 16 -31 49 -62 49 -15 0 -24
6 -24 15 0 8 -7 15 -15 15 -18 0 -20 19 -2 22 21 3 51 5 83 7 22 1 34 8 42 26
15 33 25 32 39 -6z m453 -33 c0 -3 -4 -8 -10 -11 -5 -3 -10 -1 -10 4 0 6 5 11
10 11 6 0 10 -2 10 -4z m-83 -29 c-3 -7 1 -21 8 -30 33 -46 -33 -119 -117
-130 -27 -4 -48 -4 -48 0 0 19 46 53 72 53 15 0 28 5 28 10 0 6 -11 10 -24 10
-38 0 -38 12 2 58 24 27 45 42 60 42 16 0 22 -5 19 -13z m-687 -7 c16 -8 17
-15 9 -42 -5 -17 -13 -36 -19 -42 -12 -12 6 -36 29 -36 14 -1 14 -2 -1 -11
-10 -5 -18 -19 -18 -29 0 -23 -8 -24 -44 -10 -25 9 -37 40 -16 40 5 0 17 12
27 26 13 21 14 30 4 45 -6 11 -9 24 -5 30 3 5 0 16 -6 24 -10 12 -9 15 4 15
10 0 26 -4 36 -10z m-55 -49 c3 -6 -4 -15 -15 -21 -17 -9 -20 -8 -20 10 0 20
24 28 35 11z m-125 -60 c7 -14 7 -22 -1 -27 -14 -8 -43 21 -35 35 11 17 24 13
36 -8z m870 -78 c0 -10 -4 -14 -8 -8 -4 6 -11 13 -16 18 -5 4 -2 7 7 7 10 0
17 -8 17 -17z m-14 -100 c-7 -17 -8 -17 -17 0 -6 9 -7 27 -3 40 l7 22 10 -22
c5 -12 6 -30 3 -40z m-832 8 c4 -5 -3 -7 -14 -4 -23 6 -26 13 -6 13 8 0 17 -4
20 -9z m96 -38 c0 -18 -28 -53 -42 -53 -14 0 -9 38 8 54 20 21 34 20 34 -1z
m103 -117 c3 -8 -1 -17 -9 -20 -9 -4 -14 1 -14 14 0 23 15 27 23 6z m682 4 c3
-5 -8 -16 -25 -25 -28 -15 -30 -15 -30 4 0 17 11 25 42 30 4 0 9 -3 13 -9z
m1825 -9 c0 -11 -31 -24 -39 -16 -3 3 1 10 9 15 19 12 30 12 30 1z m-1997 -47
c15 -20 16 -28 7 -39 -20 -24 -28 -18 -32 25 -4 46 0 49 25 14z m212 6 c-10
-11 -20 -18 -23 -15 -7 6 18 35 31 35 5 0 2 -9 -8 -20z m818 -5 c4 -8 2 -17
-3 -20 -6 -4 -10 3 -10 14 0 25 6 27 13 6z m-1109 -18 c15 -24 -9 -39 -53 -33
-41 6 -56 19 -47 41 8 23 85 17 100 -8z m1548 10 c19 -19 12 -127 -9 -127 -12
0 -14 8 -10 33 2 17 0 43 -5 56 -8 23 -5 51 6 51 3 0 11 -6 18 -13z m-702 -12
c0 -8 -4 -15 -9 -15 -5 0 -24 -3 -42 -6 l-34 -5 24 20 c27 24 61 28 61 6z
m1303 -20 c-5 -15 -34 -20 -46 -8 -8 7 34 32 45 26 4 -2 5 -10 1 -18z m-672
-12 c0 -10 2 -39 5 -65 3 -37 1 -48 -9 -48 -23 0 -35 22 -37 65 -4 59 -2 65
20 65 12 0 20 -7 21 -17z m586 11 c-3 -3 -12 -4 -19 -1 -8 3 -5 6 6 6 11 1 17
-2 13 -5z m-2704 -34 c10 -17 15 -35 12 -40 -8 -13 -32 -13 -37 0 -2 6 -20 13
-41 17 -30 4 -37 3 -37 -10 0 -18 29 -37 57 -37 23 0 67 -46 58 -61 -6 -8 -9
-8 -15 1 -4 6 -27 16 -51 21 -55 13 -69 25 -69 58 1 18 12 34 37 54 46 35 64
34 86 -3z m817 20 c0 -5 -7 -10 -16 -10 -8 0 -12 5 -9 10 3 6 10 10 16 10 5 0
9 -4 9 -10z m1070 0 c0 -5 1 -13 3 -17 1 -3 -9 -8 -22 -10 -24 -3 -44 13 -35
29 7 12 54 10 54 -2z m150 -15 c0 -8 -7 -15 -15 -15 -26 0 -18 20 13 29 1 1 2
-6 2 -14z m-1372 -39 c2 -3 2 -13 -2 -22 -5 -13 -9 -14 -20 -5 -8 7 -44 12
-80 13 -61 1 -75 6 -60 21 7 6 154 0 162 -7z m862 -1 c0 -8 -6 -15 -14 -15
-17 0 -28 14 -19 24 12 12 33 6 33 -9z m330 -2 c0 -2 -11 -8 -25 -13 -14 -5
-28 -17 -32 -26 -7 -18 15 -36 35 -29 6 2 12 0 12 -5 0 -6 -8 -10 -18 -10 -10
0 -23 -5 -30 -12 -9 -9 -15 -9 -27 3 -19 19 -9 87 13 91 26 5 72 6 72 1z
m-932 -36 c18 -14 15 -47 -5 -47 -41 0 -63 13 -63 35 0 34 32 40 68 12z m1107
-22 c14 -13 25 -28 25 -32 0 -4 -24 -9 -54 -10 -50 -2 -54 -1 -59 23 -3 19 1
28 17 34 34 14 45 12 71 -15z m-290 4 c11 -17 -1 -21 -15 -4 -8 9 -8 15 -2 15
6 0 14 -5 17 -11z m-1145 -19 c0 -5 -5 -10 -11 -10 -5 0 -7 5 -4 10 3 6 8 10
11 10 2 0 4 -4 4 -10z m362 -58 c11 -11 1 -69 -13 -77 -5 -4 -9 1 -9 11 0 24
-41 57 -54 44 -10 -10 -46 -14 -46 -6 0 2 -3 11 -6 19 -3 10 1 17 13 19 30 7
105 0 115 -10z m1112 -21 c3 -5 -3 -11 -14 -14 -20 -5 -26 3 -13 16 9 10 21 9
27 -2z m-89 -117 c9 -14 14 -28 12 -31 -8 -7 -47 30 -47 44 0 21 16 15 35 -13z
m-77 -137 c5 -27 -18 -97 -39 -118 -19 -19 -22 -20 -39 -4 -22 20 -38 101 -22
117 11 11 71 27 87 24 6 -2 11 -10 13 -19z m1072 -233 c0 -8 -5 -12 -10 -9 -6
4 -8 11 -5 16 9 14 15 11 15 -7z m-3720 -204 c0 -5 -4 -10 -10 -10 -5 0 -10 5
-10 10 0 6 5 10 10 10 6 0 10 -4 10 -10z m-185 -230 c3 -5 1 -47 -5 -92 -9
-65 -8 -104 3 -178 9 -66 11 -108 4 -140 -10 -50 -26 -76 -28 -44 -3 66 -7
103 -13 132 -5 20 -4 32 2 32 7 0 10 55 9 150 -2 110 1 150 10 150 6 0 15 -4
18 -10z m2082 -219 c-3 -13 2 -21 14 -24 10 -3 24 -18 30 -34 5 -15 19 -37 29
-48 31 -34 66 -189 84 -372 5 -51 2 -53 -113 -53 l-88 0 -2 143 c-1 78 -3 201
-4 273 -1 98 1 135 11 147 13 15 16 15 29 1 8 -8 13 -23 10 -33z m-872 -141
c2 -4 -7 -22 -20 -40 -14 -19 -25 -31 -25 -27 0 4 -10 2 -22 -5 l-23 -12 25
-6 25 -6 0 -147 0 -147 -89 0 -89 0 7 53 c3 28 6 96 6 150 0 82 2 97 16 97 9
0 14 6 11 13 -2 6 -9 11 -16 10 -6 -2 -13 8 -17 22 -12 48 -3 53 105 52 56 0
103 -3 106 -7z m-929 -147 c6 -73 -2 -329 -12 -345 -3 -4 -34 -8 -70 -8 -76 0
-73 -9 -44 150 26 144 43 207 58 222 6 6 12 19 12 28 0 21 19 40 35 33 9 -3
16 -33 21 -80z m3571 -25 c-3 -8 -6 -5 -6 6 -1 11 2 17 5 13 3 -3 4 -12 1 -19z
m-3039 -45 c-1 -32 3 -67 9 -78 17 -31 20 -88 6 -92 -8 -3 -13 4 -13 17 0 12
-4 18 -10 15 -11 -7 -14 152 -4 179 11 28 14 17 12 -41z m626 25 c-3 -4 2 -8
11 -8 8 0 18 -7 22 -16 4 -11 8 -12 13 -4 4 6 10 -11 14 -39 4 -27 13 -66 21
-85 l15 -36 -32 -1 c-18 0 -59 -3 -92 -5 -53 -4 -58 -3 -51 13 3 10 11 59 17
110 10 82 13 92 32 95 22 3 38 -10 30 -24z m446 -130 c0 -13 3 -33 6 -45 5
-17 2 -23 -10 -23 -12 0 -16 10 -16 45 0 25 5 45 10 45 6 0 10 -10 10 -22z
m936 -43 c-17 -13 -18 -15 -3 -15 23 0 22 -20 0 -21 -15 0 -15 -2 -3 -7 34
-15 16 -37 -35 -43 -27 -3 -50 -6 -51 -5 -1 1 -4 25 -7 54 l-6 52 62 0 c57 -1
60 -2 43 -15z m-1536 -55 c0 -23 -10 -26 -28 -8 -18 18 -15 28 8 28 13 0 20
-7 20 -20z m1110 -70 c5 0 14 -8 19 -18 8 -15 2 -27 -28 -60 -35 -38 -43 -42
-87 -42 -48 1 -91 20 -81 37 3 5 26 19 51 32 25 12 46 29 46 36 0 14 35 25 58
19 8 -2 18 -4 22 -4z m1625 -212 c14 2 55 -1 92 -8 113 -20 105 -13 100 -88
-4 -60 -7 -67 -28 -73 -32 -9 -168 -9 -199 0 -24 7 -25 11 -23 72 3 58 23 125
31 101 1 -5 14 -7 27 -4z m572 -344 c-3 -3 -12 -4 -19 -1 -8 3 -5 6 6 6 11 1
17 -2 13 -5z m178 -4 c6 -4 39 -16 75 -25 71 -20 100 -32 100 -43 0 -11 -168
-14 -175 -2 -3 5 -1 10 4 10 35 0 -17 43 -74 61 -13 4 -6 7 20 7 22 -1 45 -4
50 -8z m270 -85 l30 -14 -35 6 c-19 3 -44 10 -55 14 -18 7 -17 8 5 8 14 0 39
-6 55 -14z m75 -25 c0 -5 -7 -7 -15 -4 -8 4 -15 8 -15 10 0 2 7 4 15 4 8 0 15
-4 15 -10z"/>
<path d="M4862 2987 c-9 -11 -10 -17 -2 -22 15 -9 23 -1 18 21 -3 15 -4 16
-16 1z"/>
<path d="M2492 6002 c-17 -109 -20 -104 45 -81 31 10 64 19 73 19 34 0 51 24
57 83 l6 57 -84 0 -85 0 -12 -78z"/>
<path d="M2868 6054 c-5 -4 -8 -26 -8 -49 l0 -41 83 -16 c45 -9 85 -14 90 -11
14 8 8 101 -7 106 -26 10 -151 19 -158 11z"/>
<path d="M3246 5999 c-2 -8 -7 -46 -10 -86 l-6 -72 32 -22 c18 -13 55 -42 82
-66 26 -24 52 -43 58 -43 7 0 1 278 -6 286 0 1 -34 5 -73 9 -57 5 -74 4 -77
-6z"/>
<path d="M10691 5723 c-18 -16 -31 -37 -31 -50 0 -21 4 -23 56 -23 l57 0 -6
36 c-6 36 -22 64 -37 64 -4 0 -22 -12 -39 -27z"/>
<path d="M10274 5714 c3 -7 0 -28 -6 -45 -10 -29 -9 -34 12 -51 14 -12 30 -16
44 -12 33 10 36 17 26 55 -7 26 -19 39 -46 51 -28 13 -34 13 -30 2z"/>
<path d="M10163 5675 c-4 -11 0 -21 10 -27 10 -5 17 -16 17 -23 0 -8 5 -15 10
-15 6 0 9 17 7 37 -3 41 -32 59 -44 28z"/>
<path d="M3334 5648 c-4 -6 -10 -25 -14 -42 -5 -27 -10 -31 -39 -31 -25 0 -36
-5 -41 -20 -9 -27 -1 -55 17 -55 8 0 11 -4 8 -10 -3 -5 -2 -10 4 -10 5 0 11
-14 13 -31 5 -50 29 -58 83 -30 35 18 44 28 40 42 -5 15 1 18 37 21 42 3 43 4
43 38 0 32 -3 36 -37 44 -29 7 -38 15 -38 31 0 46 -56 86 -76 53z"/>
<path d="M2382 5634 c-34 -16 -36 -31 -58 -492 -6 -119 -5 -145 7 -153 23 -14
149 -11 155 4 7 18 -29 124 -66 196 -38 72 -35 102 13 131 37 23 59 25 86 8
15 -9 31 -9 68 -1 55 13 67 8 38 -14 -20 -15 -20 -15 3 -10 27 6 52 -16 45
-41 -7 -30 71 -184 112 -220 41 -37 55 -39 98 -15 48 26 77 54 77 74 0 35 -40
107 -93 165 -27 30 -117 162 -117 171 0 2 -23 43 -52 90 -34 54 -62 89 -78 95
-29 11 -219 21 -238 12z"/>
<path d="M10374 5589 c-4 -7 0 -17 10 -25 12 -8 14 -14 6 -19 -8 -5 -6 -13 6
-26 23 -26 49 -24 62 5 9 20 7 27 -11 44 -29 26 -63 36 -73 21z"/>
<path d="M10534 5576 c-18 -14 -18 -15 -1 -22 22 -8 46 11 31 26 -7 7 -17 5
-30 -4z"/>
<path d="M431 5534 c0 -11 3 -14 6 -6 3 7 2 16 -1 19 -3 4 -6 -2 -5 -13z"/>
<path d="M10698 5528 c-6 -18 16 -78 28 -78 6 0 17 7 24 15 17 20 25 19 38 -7
9 -20 11 -18 11 22 0 35 -2 41 -10 28 -5 -10 -14 -18 -19 -18 -15 0 -12 30 3
31 15 1 -32 17 -55 18 -9 1 -18 -4 -20 -11z"/>
<path d="M10510 5510 c0 -5 7 -10 15 -10 8 0 15 5 15 10 0 6 -7 10 -15 10 -8
0 -15 -4 -15 -10z"/>
<path d="M10133 5478 c-42 -66 -35 -85 27 -86 34 -1 41 3 46 24 10 37 -11 74
-40 74 -14 0 -28 -6 -33 -12z"/>
<path d="M446 5423 c4 -21 13 -49 21 -63 9 -15 12 -18 8 -5 -3 10 -9 38 -12
62 -3 24 -10 43 -15 43 -5 0 -6 -17 -2 -37z"/>
<path d="M10758 5423 c-21 -5 -24 -23 -5 -24 6 0 2 -4 -10 -9 -14 -6 -23 -18
-23 -32 -1 -22 -2 -21 -16 5 -21 39 -46 31 -56 -18 -5 -22 -13 -44 -18 -49 -4
-4 -6 -16 -3 -25 3 -9 7 -21 9 -28 2 -9 9 -9 30 2 32 16 58 9 48 -14 -14 -33
-16 -61 -5 -61 6 0 11 11 11 25 0 36 24 31 38 -8 15 -43 15 -48 -2 -41 -8 3
-19 -3 -26 -15 -8 -16 -8 -21 1 -21 7 0 9 -12 5 -35 -4 -22 -3 -35 4 -35 21 0
11 -77 -14 -107 -28 -33 -32 -50 -21 -76 5 -12 2 -24 -9 -35 -15 -15 -16 -15
-16 6 0 28 -16 29 -23 1 l-6 -22 -34 21 c-39 22 -43 21 -76 -27 -13 -18 -39
-40 -57 -47 -32 -13 -34 -17 -34 -63 0 -31 5 -53 15 -61 13 -11 10 -16 -16
-41 -17 -16 -35 -29 -39 -29 -4 0 -10 -7 -14 -15 -6 -18 5 -20 21 -4 8 8 17 8
30 1 16 -10 13 -13 -22 -27 -34 -14 -62 -26 -97 -43 -5 -2 -3 9 2 24 8 21 8
29 -2 36 -22 14 -35 9 -72 -27 -20 -19 -45 -35 -56 -35 -11 0 -20 -7 -20 -15
0 -10 10 -15 30 -15 17 0 30 5 30 10 0 6 12 10 28 10 l27 -1 -35 -19 c-19 -11
-42 -19 -52 -20 -9 0 -18 -4 -20 -8 -3 -8 -101 -52 -116 -52 -5 0 -7 20 -4 45
3 28 1 45 -6 45 -19 0 -52 -52 -58 -92 -4 -23 -12 -38 -21 -38 -8 0 -33 -9
-56 -19 -116 -53 -161 -71 -174 -71 -29 0 7 29 51 42 22 6 46 14 51 18 6 3 29
12 52 20 35 11 47 21 63 55 28 58 26 90 -5 67 -10 -7 -29 -43 -39 -75 -7 -22
-42 -19 -39 3 1 8 8 33 16 55 45 123 23 142 -33 28 -31 -63 -38 -72 -62 -72
-17 -1 -28 -7 -28 -15 0 -8 -7 -17 -16 -20 -13 -5 -15 -2 -11 13 6 26 -13 42
-41 34 -28 -7 -28 -27 0 -52 18 -17 19 -23 8 -36 -14 -17 -38 -15 -93 7 -26
10 -28 14 -23 52 3 23 3 34 0 26 -4 -8 -16 -25 -27 -37 -18 -20 -18 -23 -3
-29 9 -3 16 -16 16 -29 0 -13 7 -25 15 -29 8 -3 15 -15 15 -26 0 -13 7 -20 19
-20 49 0 23 -24 -86 -76 -65 -32 -144 -70 -176 -86 -32 -15 -64 -28 -70 -28
-7 0 -19 13 -29 29 -14 25 -14 30 -2 35 8 3 20 -3 26 -14 21 -32 40 -25 34 12
-5 30 -21 49 -50 62 -6 3 6 20 28 39 29 25 35 36 25 42 -7 5 -14 4 -17 -3 -5
-17 -58 -15 -75 3 -17 17 -27 10 -27 -20 0 -12 -11 -32 -24 -44 l-24 -23 -12
23 c-11 19 -14 20 -21 6 -13 -22 9 -66 37 -73 20 -5 22 -10 18 -57 -3 -28 -8
-55 -11 -60 -11 -18 -220 -97 -257 -97 -19 0 -19 1 2 20 18 17 20 25 12 40
-11 21 -35 26 -45 10 -3 -5 -19 -10 -35 -10 -17 0 -40 -10 -55 -24 l-25 -24
25 -16 c13 -9 32 -16 42 -16 11 0 13 -3 7 -9 -21 -21 -336 -191 -353 -191 -6
0 -11 6 -11 14 0 7 -9 25 -21 40 -25 32 -69 36 -69 6 0 -11 -11 -27 -25 -36
-13 -9 -27 -26 -31 -37 -7 -23 -43 -67 -54 -67 -4 0 -31 23 -59 50 -28 28 -58
50 -66 50 -8 0 -15 8 -15 19 0 10 -7 24 -15 31 -8 7 -15 18 -15 24 0 7 -13 30
-28 52 -31 43 -46 74 -34 74 4 0 32 -9 62 -20 30 -11 56 -20 57 -20 2 0 3 -6
3 -13 0 -9 -11 -12 -36 -9 -33 4 -35 3 -26 -14 6 -11 20 -28 32 -39 l22 -20
26 33 c15 18 36 32 48 32 26 0 35 19 39 86 3 47 1 52 -21 63 -20 9 -24 16 -18
34 12 39 10 52 -9 49 -25 -4 -83 16 -98 34 -10 12 -5 22 30 54 27 25 37 40 27
40 -9 0 -16 8 -16 19 0 14 -10 19 -47 24 -67 8 -103 -1 -103 -25 0 -11 -14
-27 -34 -39 l-34 -20 24 -59 c25 -61 31 -110 15 -110 -5 0 -12 9 -16 20 -7 23
-56 60 -80 60 -9 0 -14 -4 -10 -10 3 -5 0 -18 -6 -28 -14 -22 -5 -56 14 -49 6
2 11 14 10 26 -4 29 8 26 42 -9 23 -24 26 -32 15 -45 -8 -9 -10 -27 -6 -50 7
-33 -6 -50 -17 -22 -4 9 -6 9 -6 0 -2 -23 -21 -14 -21 10 0 12 -12 38 -27 57
-16 19 -37 52 -47 73 -11 20 -23 37 -28 37 -4 0 -9 -24 -9 -52 -1 -29 -2 -60
-3 -68 -1 -8 4 -39 10 -68 7 -31 9 -77 5 -112 -4 -33 -4 -119 1 -191 4 -73 5
-136 2 -141 -3 -4 -16 -8 -28 -8 -22 0 -23 -3 -18 -49 4 -46 3 -50 -24 -62
-16 -8 -30 -24 -32 -36 -3 -18 2 -22 30 -25 l33 -3 6 -100 c4 -55 7 -151 8
-213 l1 -113 -36 -15 c-45 -19 -43 -48 3 -52 32 -3 43 -20 43 -70 0 -27 53
-82 78 -82 8 0 40 7 71 16 66 19 108 29 176 42 28 5 104 21 170 36 66 14 154
33 195 42 41 9 91 22 112 29 20 7 48 10 64 7 24 -4 26 -2 21 17 -6 23 3 27 20
10 8 -8 13 -8 17 0 4 6 16 11 26 11 10 0 20 5 22 12 5 15 106 27 134 15 28
-12 145 18 162 41 11 14 14 14 21 3 5 -8 18 -12 32 -9 13 3 60 13 104 23 97
21 109 27 110 57 0 18 6 24 29 26 15 2 42 12 60 23 43 26 106 26 113 -1 5 -19
11 -20 62 -15 55 6 118 34 93 43 -19 6 -14 22 7 22 11 0 22 4 25 9 4 5 25 12
49 16 23 3 55 9 71 12 24 4 28 2 23 -12 -5 -13 -2 -16 16 -13 14 2 21 9 19 20
-3 20 29 29 43 12 12 -15 172 -2 221 16 61 24 131 39 257 55 21 3 47 10 57 15
10 6 29 10 42 10 37 0 71 23 73 48 1 13 8 28 16 33 11 6 15 1 17 -22 3 -30 4
-30 45 -24 53 9 65 19 69 58 4 41 33 44 34 4 1 -15 4 -30 7 -33 3 -4 6 98 6
225 0 194 -2 231 -14 231 -8 0 -18 -12 -21 -26 l-7 -27 -13 26 c-20 38 -30
163 -14 182 8 10 9 15 1 15 -19 0 -12 28 9 35 24 8 45 41 30 50 -5 3 -19 1
-31 -6 -17 -9 -23 -8 -30 2 -11 18 -11 26 2 50 7 14 7 24 0 33 -6 6 -8 21 -5
33 3 11 1 24 -5 27 -14 9 -15 56 -1 56 5 0 16 -15 24 -34 8 -20 28 -42 45 -51
l31 -16 0 315 c0 242 -3 315 -12 319 -10 4 -10 6 0 6 19 1 17 360 -2 367 -15
6 -10 44 5 44 5 0 9 34 9 75 0 73 -1 75 -24 75 -30 0 -37 10 -42 61 -2 26 0
39 9 39 26 1 57 38 57 69 0 31 -5 34 -42 24z m-81 -804 c-41 -22 -58 -19 -37
6 7 8 27 15 44 15 l31 -1 -38 -20z m77 -195 c4 -9 4 -25 1 -35 -8 -25 -35 -13
-35 15 0 37 23 49 34 20z m-242 -47 c-2 -21 3 -29 23 -37 47 -18 41 -63 -10
-72 -15 -2 -20 4 -22 32 -2 19 -8 39 -13 44 -6 6 -10 23 -10 39 0 22 4 28 18
25 12 -3 16 -12 14 -31z m-114 -31 c6 -28 -7 -66 -23 -66 -9 0 -15 -13 -17
-37 -4 -47 -23 -41 -23 7 0 19 -4 45 -8 56 -6 17 -2 27 19 43 31 24 47 23 52
-3z m-164 -78 c-3 -13 -13 -30 -20 -39 -8 -8 -14 -21 -14 -27 0 -7 -5 -12 -11
-12 -6 0 -9 3 -7 8 3 4 13 26 23 50 19 44 42 59 29 20z m342 -104 c-3 -9 -6
-21 -6 -27 0 -7 -4 -7 -9 2 -10 16 -4 41 11 41 6 0 7 -7 4 -16z m-521 -3 c3
-5 1 -12 -5 -16 -5 -3 -10 1 -10 9 0 18 6 21 15 7z m-135 -11 c10 -6 15 -27
15 -67 0 -47 -3 -58 -17 -61 -13 -3 -18 3 -17 20 1 13 -5 37 -12 54 -12 30 -8
64 8 64 4 0 15 -4 23 -10z m480 -20 c0 -5 -5 -10 -11 -10 -5 0 -7 5 -4 10 3 6
8 10 11 10 2 0 4 -4 4 -10z m150 -35 c0 -8 -4 -15 -10 -15 -5 0 -10 7 -10 15
0 8 5 15 10 15 6 0 10 -7 10 -15z m-761 -39 c15 -18 10 -78 -7 -84 -18 -6 -43
58 -31 80 12 22 23 23 38 4z m821 -46 c0 -9 -7 -25 -15 -36 -20 -27 -19 -42
10 -80 21 -27 24 -40 19 -72 -3 -22 -1 -62 5 -90 9 -43 8 -55 -9 -90 -11 -23
-20 -53 -20 -67 0 -19 -5 -25 -21 -25 -20 0 -21 4 -15 45 5 29 4 45 -3 45 -31
0 3 69 40 83 11 4 12 7 2 18 -7 7 -13 23 -13 35 0 16 -7 24 -22 26 -26 4 -57
83 -40 100 13 13 -1 45 -27 65 -14 11 -13 15 9 33 14 11 31 20 37 20 7 0 18 9
25 20 12 19 14 19 26 3 6 -9 12 -24 12 -33z m-1085 -30 c3 -11 3 -29 0 -40 -4
-11 -2 -20 4 -20 16 0 13 -37 -2 -43 -8 -3 -19 -2 -26 3 -16 9 -10 66 7 63 6
-2 12 2 12 7 0 6 -4 10 -10 10 -5 0 -10 9 -10 20 0 11 4 20 9 20 5 0 13 -9 16
-20z m409 4 c22 -8 20 -40 -4 -64 -22 -22 -39 -8 -20 15 9 11 10 19 1 28 -6 8
-8 17 -4 20 8 8 8 8 27 1z m-276 -47 c2 -11 -3 -17 -17 -17 -23 0 -35 15 -26
31 10 15 39 6 43 -14z m-1608 3 c0 -5 -4 -10 -10 -10 -5 0 -10 5 -10 10 0 6 5
10 10 10 6 0 10 -4 10 -10z m-17 -42 c8 -30 0 -36 -18 -12 -18 24 -19 34 -1
34 7 0 16 -10 19 -22z m1777 -35 c0 -46 17 -83 37 -83 10 0 28 -11 40 -24 15
-16 30 -22 47 -19 28 6 40 -9 31 -37 -8 -25 -70 -43 -98 -29 -15 8 -22 8 -28
-2 -6 -11 -12 -11 -33 1 -27 14 -36 36 -11 27 8 -4 17 -2 20 3 4 6 -6 15 -20
20 -21 8 -25 14 -19 33 4 12 6 29 5 37 -11 78 1 149 20 119 5 -8 9 -28 9 -46z
m-398 23 c12 -28 5 -54 -17 -63 -23 -8 -43 13 -27 29 7 7 12 22 12 35 0 30 18
29 32 -1z m716 -9 c16 -19 0 -71 -24 -76 -10 -2 -22 -8 -25 -13 -3 -5 -12 5
-19 23 -13 30 -12 33 14 55 31 28 39 29 54 11z m-473 -7 c-3 -5 -10 -10 -16
-10 -5 0 -9 5 -9 10 0 6 7 10 16 10 8 0 12 -4 9 -10z m-495 -40 c0 -16 -4 -30
-10 -30 -5 0 -10 6 -10 14 0 8 -3 21 -6 30 -4 11 -1 16 10 16 11 0 16 -9 16
-30z m1315 11 c3 -5 1 -13 -5 -16 -15 -9 -43 3 -35 15 8 13 32 13 40 1z m-931
-17 c3 -9 6 -31 6 -50 0 -20 5 -44 10 -55 13 -23 57 -25 81 -3 21 19 37 12 50
-23 10 -28 2 -48 -21 -48 -22 0 -24 -32 -3 -38 10 -3 -6 -5 -34 -6 -29 0 -53
-4 -53 -8 0 -4 9 -16 19 -27 10 -12 22 -36 26 -53 6 -30 4 -34 -30 -50 -31
-15 -37 -15 -46 -3 -5 8 -8 25 -6 38 3 14 -1 22 -9 22 -8 0 -14 11 -14 25 0
15 6 25 14 25 27 0 27 20 2 42 -23 21 -25 31 -27 108 -2 83 5 120 21 120 4 0
11 -7 14 -16z m400 -10 c22 -21 20 -29 -7 -29 -19 0 -22 4 -19 23 5 26 6 27
26 6z m-880 -10 c16 -42 0 -114 -23 -100 -20 13 -12 116 9 116 4 0 11 -7 14
-16z m614 -17 c4 -34 -11 -35 -26 -2 -16 34 -15 37 6 33 10 -2 18 -14 20 -31z
m-259 -102 c-1 -99 -2 -104 -19 -93 -10 7 -17 15 -14 19 2 4 0 39 -5 79 -11
82 -7 100 20 100 18 0 19 -8 18 -105z m-459 46 c9 -37 9 -55 0 -71 -6 -12 -9
-27 -7 -34 3 -6 -2 -21 -10 -31 -17 -24 -32 -7 -26 29 3 13 0 27 -6 30 -6 4
-11 29 -11 56 0 36 5 52 18 59 27 16 29 14 42 -38z m346 -42 c0 -76 14 -106
57 -124 59 -24 81 -51 84 -103 1 -26 5 -84 9 -129 6 -81 -1 -113 -28 -113 -14
0 -38 65 -38 105 0 31 -3 35 -26 35 -27 0 -27 -1 -21 -59 2 -32 1 -64 -4 -72
-26 -42 -61 99 -59 235 1 56 -3 139 -9 185 -8 62 -8 88 1 98 22 26 33 7 34
-58z m-456 -15 c0 -57 -2 -65 -17 -62 -14 2 -19 15 -21 52 -4 57 2 76 23 76
12 0 15 -13 15 -66z m1310 46 c0 -5 -7 -10 -15 -10 -8 0 -15 5 -15 10 0 6 7
10 15 10 8 0 15 -4 15 -10z m-1414 -99 c1 -34 4 -65 8 -68 9 -10 7 -56 -4 -73
-9 -13 -12 -12 -25 4 -18 23 -19 48 -4 63 8 8 8 17 0 31 -12 23 -15 95 -4 106
17 17 28 -6 29 -63z m-276 29 c-20 -13 -33 -13 -25 0 3 6 14 10 23 10 15 0 15
-2 2 -10z m1380 -10 c0 -5 -5 -10 -11 -10 -5 0 -7 5 -4 10 3 6 8 10 11 10 2 0
4 -4 4 -10z m54 -29 c3 -5 -1 -12 -10 -15 -20 -8 -29 -1 -19 13 8 13 22 14 29
2z m-1043 -34 c11 -25 -3 -77 -20 -77 -12 0 -25 64 -17 85 8 22 25 18 37 -8z
m1087 -5 c5 -17 -13 -15 -27 2 -10 12 -9 14 5 12 10 -2 20 -8 22 -14z m-1300
-30 c3 -9 -2 -13 -14 -10 -9 1 -19 9 -22 16 -3 9 2 13 14 10 9 -1 19 -9 22
-16z m1172 -12 c11 -11 16 -20 11 -20 -12 0 -1 -42 16 -58 19 -19 16 -38 -9
-62 -27 -25 -45 -26 -52 -2 -9 27 -4 162 6 162 4 0 17 -9 28 -20z m318 -60
c12 -48 9 -54 -25 -65 -17 -5 -23 -2 -23 9 0 8 5 18 10 21 7 4 7 12 0 25 -11
21 -13 63 -3 74 12 11 30 -17 41 -64z m-1474 28 c3 -13 7 -43 11 -67 3 -24 13
-50 23 -57 14 -10 15 -15 4 -26 -18 -18 -40 -1 -68 53 -20 38 -22 50 -13 82
11 41 36 50 43 15z m1046 -17 c0 -6 -4 -13 -10 -16 -5 -3 -10 1 -10 9 0 9 5
16 10 16 6 0 10 -4 10 -9z m280 5 c0 -15 -14 -35 -21 -30 -15 9 -10 34 6 34 8
0 15 -2 15 -4z m-801 -28 c10 -29 24 -295 16 -308 -4 -7 -13 -6 -26 1 -17 9
-20 19 -18 71 2 47 -1 62 -14 70 -34 19 -65 118 -37 118 4 0 17 16 29 35 24
41 38 44 50 13z m1484 -31 c13 -54 2 -87 -28 -87 -22 0 -25 4 -26 38 0 20 -3
31 -6 25 -6 -15 -23 -17 -23 -3 0 16 53 71 64 67 6 -2 15 -20 19 -40z m-1753
2 c0 -48 -35 -75 -59 -45 -15 18 -6 39 22 52 33 17 37 16 37 -7z m650 -3 c0
-18 -17 -29 -30 -21 -8 5 -7 11 1 21 15 18 29 18 29 0z m140 -1 c18 -21 3 -55
-25 -55 -23 0 -35 17 -35 51 0 23 41 26 60 4z m270 0 c0 -8 -7 -15 -16 -15
-14 0 -14 3 -4 15 7 8 14 15 16 15 2 0 4 -7 4 -15z m-1524 -83 c-11 -10 -13 3
-7 43 l6 40 3 -39 c2 -21 1 -41 -2 -44z m625 19 c4 -19 5 -40 2 -48 -10 -25
-28 -7 -29 29 -1 19 -5 41 -9 48 -5 8 -2 11 11 8 11 -2 21 -16 25 -37z m-311
-34 c0 -62 -10 -127 -19 -127 -4 0 -15 14 -25 32 -16 26 -16 30 -3 25 12 -5
16 7 22 64 8 79 25 83 25 6z m1386 38 c4 -8 3 -35 0 -60 -9 -56 -38 -63 -55
-14 -17 48 -13 69 12 79 31 13 37 12 43 -5z m-590 -13 c6 -4 11 -25 10 -47 -1
-31 -5 -40 -18 -40 -10 0 -18 3 -19 7 0 4 -4 21 -9 37 -11 38 9 61 36 43z
m442 -81 l3 -52 -20 20 c-20 20 -28 70 -14 85 16 16 28 -4 31 -53z m-324 28
c-3 -5 -10 -7 -15 -3 -5 3 -7 10 -3 15 3 5 10 7 15 3 5 -3 7 -10 3 -15z m636
11 c0 -5 -4 -10 -10 -10 -5 0 -10 5 -10 10 0 6 5 10 10 10 6 0 10 -4 10 -10z
m-2107 -41 c-8 -29 -13 -23 -13 14 0 22 3 28 9 18 5 -7 6 -22 4 -32z m1640
-46 c-1 -18 -2 -42 -2 -53 -1 -22 -26 -28 -33 -7 -3 6 -6 31 -7 55 -2 40 0 43
20 40 18 -2 23 -9 22 -35z m-143 2 c7 -9 11 -18 8 -20 -9 -10 -38 7 -38 21 0
18 14 18 30 -1z m-143 -22 c-4 -3 -1 -13 7 -22 8 -9 16 -32 18 -51 2 -29 0
-35 -16 -35 -14 0 -22 10 -29 34 -10 39 -2 81 15 81 6 0 8 -3 5 -7z m-479 -35
c-4 -46 -28 -49 -28 -4 0 26 4 36 16 36 11 0 14 -8 12 -32z m612 28 c0 -3 -4
-8 -10 -11 -5 -3 -10 -1 -10 4 0 6 5 11 10 11 6 0 10 -2 10 -4z m-232 -77 c3
-59 1 -67 -17 -72 -24 -6 -31 10 -31 68 0 56 8 77 29 73 12 -3 17 -18 19 -69z
m-798 51 c0 -5 -7 -10 -15 -10 -8 0 -15 5 -15 10 0 6 7 10 15 10 8 0 15 -4 15
-10z m-280 -36 c0 -8 -4 -14 -10 -14 -5 0 -10 9 -10 21 0 11 5 17 10 14 6 -3
10 -13 10 -21z m-170 -4 c0 -5 -4 -10 -10 -10 -5 0 -10 5 -10 10 0 6 5 10 10
10 6 0 10 -4 10 -10z m883 -85 c-3 -43 -7 -50 -22 -40 -12 7 -15 68 -4 79 15
15 28 -4 26 -39z m237 29 c0 -8 -5 -12 -10 -9 -6 4 -8 11 -5 16 9 14 15 11 15
-7z m-940 -14 c0 -11 -4 -20 -10 -20 -5 0 -10 9 -10 20 0 11 5 20 10 20 6 0
10 -9 10 -20z m370 -10 c0 -5 -5 -10 -11 -10 -5 0 -7 5 -4 10 3 6 8 10 11 10
2 0 4 -4 4 -10z m-360 -77 c0 -23 -5 -33 -15 -33 -16 0 -21 43 -9 75 10 24 24
-1 24 -42z m-487 -33 c-3 -11 -9 -20 -14 -20 -10 0 -12 24 -2 33 13 13 21 7
16 -13z m480 -75 c-3 -13 -9 -22 -14 -19 -10 6 -12 38 -3 47 13 12 21 -3 17
-28z"/>
<path d="M10580 3825 c0 -8 5 -15 10 -15 6 0 10 7 10 15 0 8 -4 15 -10 15 -5
0 -10 -7 -10 -15z"/>
<path d="M9926 5378 c-7 -13 -17 -44 -20 -70 -6 -41 -4 -48 16 -62 21 -15 24
-14 51 12 l28 27 17 -23 c10 -13 21 -20 25 -16 11 11 8 64 -3 64 -5 0 -10 11
-10 23 0 58 -75 90 -104 45z"/>
<path d="M10272 5374 c-9 -7 -25 -14 -36 -14 -17 0 -17 -1 -2 -25 9 -13 16
-35 16 -49 0 -14 4 -27 9 -30 13 -9 32 19 25 37 -7 19 23 67 42 67 8 0 14 -4
14 -10 0 -5 7 -10 16 -10 10 0 14 7 12 22 -2 18 -10 22 -41 24 -21 0 -45 -5
-55 -12z"/>
<path d="M10475 5349 c4 -6 -1 -19 -10 -29 -9 -10 -15 -25 -13 -33 2 -9 -4
-22 -13 -29 -11 -8 -18 -34 -22 -75 l-5 -62 30 -6 c37 -9 70 17 50 37 -22 22
-12 48 38 100 28 28 50 55 50 60 0 4 -13 8 -30 8 -16 0 -33 6 -37 13 -4 8 -16
16 -26 20 -11 4 -16 3 -12 -4z"/>
<path d="M471 5318 c-1 -9 6 -48 14 -86 8 -39 16 -86 18 -104 2 -19 7 -40 11
-47 5 -7 10 -35 12 -63 1 -28 10 -78 18 -112 8 -34 18 -81 21 -106 16 -125 17
-127 50 -159 27 -25 39 -30 60 -25 25 6 26 5 20 -28 -5 -25 -2 -38 9 -47 9 -8
16 -10 16 -5 0 5 8 -6 16 -23 21 -42 43 -42 83 -1 36 37 49 32 27 -11 -20 -38
-22 -95 -3 -88 25 10 40 -8 28 -32 -7 -11 -9 -22 -6 -22 3 -1 10 -3 15 -4 6
-1 15 -3 21 -4 6 0 9 -8 5 -16 -3 -8 -1 -15 4 -15 6 0 10 9 10 20 0 11 5 20
11 20 8 0 10 -14 6 -41 -4 -34 -2 -45 17 -63 12 -11 46 -48 75 -81 51 -58 146
-163 195 -215 13 -14 39 -45 57 -70 58 -76 82 -100 101 -100 10 0 34 -6 53
-14 26 -11 36 -12 43 -3 9 11 15 80 28 297 3 52 7 98 10 101 5 8 -47 17 -64
11 -17 -5 -15 -23 6 -38 13 -10 14 -15 5 -25 -10 -10 -19 -7 -44 17 -52 49
-54 61 -11 60 29 -1 39 4 47 21 5 12 22 25 36 28 34 8 37 17 46 123 6 80 5 86
-10 73 -10 -7 -17 -19 -17 -27 0 -7 -8 -19 -17 -26 -10 -7 -18 -19 -19 -25 -1
-7 -2 -20 -2 -28 -2 -13 -60 -51 -66 -43 -15 18 -36 78 -42 113 -3 24 -12 49
-20 56 -20 17 -87 4 -103 -20 -16 -24 -31 -27 -31 -7 0 24 -18 28 -52 12 -40
-20 -37 -21 -78 15 -19 17 -47 37 -61 44 -14 8 -59 36 -100 62 -41 27 -92 57
-114 68 -22 11 -47 25 -55 31 -8 7 -42 26 -75 43 -58 31 -60 33 -78 94 -9 34
-27 109 -39 167 -12 58 -27 108 -32 111 -5 4 -6 17 -3 29 3 12 2 32 -3 44 -4
11 -13 48 -20 81 -14 69 -28 110 -29 83z m833 -1020 c7 -37 2 -45 -19 -28 -15
13 -20 42 -8 53 13 14 21 6 27 -25z m-134 13 c0 -6 -4 -13 -10 -16 -5 -3 -10
1 -10 9 0 9 5 16 10 16 6 0 10 -4 10 -9z m236 -58 c-10 -10 -19 5 -10 18 6 11
8 11 12 0 2 -7 1 -15 -2 -18z m-186 -6 c0 -13 -8 -32 -18 -43 -10 -11 -27 -32
-36 -47 -10 -15 -21 -27 -25 -27 -11 1 -40 69 -32 75 5 2 12 -7 15 -21 9 -33
29 -26 37 12 13 65 59 105 59 51z m-9 -130 c-13 -13 -26 -3 -16 12 3 6 11 8
17 5 6 -4 6 -10 -1 -17z m-31 -37 c0 -11 -4 -20 -9 -20 -14 0 -23 18 -16 30
10 17 25 11 25 -10z m119 -19 c20 -13 3 -33 -21 -25 -13 4 -24 0 -33 -13 -10
-13 -17 -15 -25 -7 -17 17 -1 42 28 47 15 2 29 5 32 5 3 1 11 -2 19 -7z m15
-76 c3 -8 1 -15 -4 -15 -6 0 -10 7 -10 15 0 8 2 15 4 15 2 0 6 -7 10 -15z"/>
<path d="M4345 5308 c-3 -8 -4 -75 -3 -149 3 -130 4 -134 25 -137 17 -3 24 3
29 23 3 14 4 34 1 45 -6 25 14 32 73 24 55 -7 105 15 114 50 21 76 -19 133
-99 140 -27 3 -69 8 -92 12 -32 4 -44 2 -48 -8z m163 -49 c12 -5 22 -15 22
-23 0 -8 3 -21 6 -29 8 -23 -31 -57 -67 -57 -52 0 -69 15 -69 63 0 67 24 77
108 46z"/>
<path d="M4687 5284 c-4 -4 -7 -71 -7 -149 l0 -142 31 -7 c17 -3 67 -6 110 -6
61 0 79 3 79 14 0 19 -22 26 -79 26 -60 0 -84 17 -79 55 l3 30 70 0 c57 0 70
3 73 17 3 17 -18 22 -113 30 -25 3 -31 8 -33 32 -5 43 10 51 88 47 57 -2 70 0
70 12 0 18 -15 23 -95 32 -33 3 -71 8 -85 11 -14 2 -29 2 -33 -2z"/>
<path d="M3255 5260 c-10 -16 4 -30 30 -30 18 0 22 4 18 20 -6 21 -37 27 -48
10z"/>
<path d="M9422 5258 c-26 -26 -6 -88 28 -88 17 0 20 -7 20 -40 0 -39 1 -40 34
-40 40 0 51 -12 59 -64 3 -21 14 -46 24 -56 16 -15 23 -16 63 -4 58 18 80 17
94 0 17 -22 56 -3 56 27 0 35 -30 58 -67 51 -21 -4 -35 -1 -47 11 -16 17 -29
17 -83 0 -20 -6 -23 -4 -23 19 0 22 -4 27 -22 24 -17 -2 -23 4 -31 32 -5 19
-12 40 -17 45 -4 6 -11 25 -15 43 -5 22 -15 36 -32 43 -30 11 -27 11 -41 -3z"/>
<path d="M1543 5226 c-9 -30 -8 -37 7 -51 27 -25 53 -15 64 24 8 28 7 36 -9
47 -31 23 -51 17 -62 -20z"/>
<path d="M4960 5240 c0 -12 8 -21 23 -24 80 -17 77 -14 78 -54 0 -20 0 -74 -1
-119 -1 -46 2 -83 7 -84 4 0 18 -2 31 -5 21 -4 22 -1 23 84 1 48 0 101 -1 119
-2 35 16 44 70 40 19 -2 25 3 25 18 0 17 -11 21 -100 32 -144 17 -155 17 -155
-7z"/>
<path d="M3148 5223 c7 -3 16 -2 19 1 4 3 -2 6 -13 5 -11 0 -14 -3 -6 -6z"/>
<path d="M975 5210 c-4 -6 -11 -8 -16 -5 -5 3 -6 -1 -3 -9 6 -17 45 -7 52 12
5 15 -24 16 -33 2z"/>
<path d="M5302 5175 c0 -16 2 -22 5 -12 2 9 2 23 0 30 -3 6 -5 -1 -5 -18z"/>
<path d="M9766 5177 c-32 -26 -33 -58 -1 -63 11 -2 25 -10 31 -18 6 -9 19 -16
28 -16 9 0 19 -8 23 -17 3 -10 12 -25 20 -34 8 -10 16 -43 18 -75 3 -33 2 -50
-1 -39 -13 49 -15 51 -30 31 -8 -11 -14 -30 -14 -43 0 -31 -18 -29 -30 2 -11
30 -14 31 -40 5 -24 -24 -26 -40 -4 -40 8 0 13 4 10 9 -4 5 3 7 14 4 12 -3 20
-14 20 -27 0 -32 6 -35 53 -24 35 8 44 6 55 -9 13 -17 14 -17 29 5 20 29 35
28 28 -1 -8 -31 20 -58 29 -29 4 11 3 27 0 37 -4 9 -2 20 4 24 18 11 19 66 2
66 -25 0 -44 34 -32 59 7 16 6 27 -5 41 -8 11 -12 28 -9 38 2 10 -2 21 -9 23
-7 3 -16 16 -19 30 -4 15 -14 24 -26 24 -10 0 -22 5 -26 11 -3 6 -16 8 -28 5
-14 -4 -27 2 -41 19 l-20 25 -29 -23z m172 -236 c-13 -21 -38 -17 -38 5 0 8
10 14 25 14 22 0 24 -2 13 -19z"/>
<path d="M7835 5180 c-3 -5 1 -10 9 -10 9 0 16 5 16 10 0 6 -4 10 -9 10 -6 0
-13 -4 -16 -10z"/>
<path d="M5612 5171 c-9 -5 -10 -15 -3 -33 5 -14 9 -31 9 -39 -3 -53 6 -52 12
1 7 69 3 84 -18 71z"/>
<path d="M5744 5164 c3 -9 7 -30 7 -47 1 -19 3 -24 6 -14 3 10 10 16 17 14 7
-3 13 1 13 9 0 8 -6 14 -14 14 -7 0 -13 9 -13 20 0 11 -5 20 -11 20 -6 0 -8
-7 -5 -16z"/>
<path d="M7770 5155 c0 -9 5 -15 11 -13 6 2 11 8 11 13 0 5 -5 11 -11 13 -6 2
-11 -4 -11 -13z"/>
<path d="M5820 5150 c0 -5 5 -10 10 -10 6 0 10 5 10 10 0 6 -4 10 -10 10 -5 0
-10 -4 -10 -10z"/>
<path d="M5900 5150 c-24 -8 -23 -8 8 -9 20 -1 31 3 27 9 -3 6 -7 10 -8 9 -1
-1 -13 -5 -27 -9z"/>
<path d="M6021 5108 c2 -30 3 -34 6 -15 3 16 11 27 19 27 20 0 12 24 -9 28
-14 3 -17 -4 -16 -40z"/>
<path d="M8025 5139 c-4 -6 -5 -13 -2 -16 7 -7 27 6 27 18 0 12 -17 12 -25 -2z"/>
<path d="M10252 5138 c-7 -7 -12 -18 -12 -25 0 -8 -8 -13 -17 -11 -24 4 -29
-30 -7 -46 15 -11 23 -10 48 5 31 19 66 25 66 12 0 -5 -14 -16 -30 -25 -27
-16 -29 -19 -18 -43 10 -22 16 -25 42 -18 17 4 43 6 58 5 33 -1 42 11 44 60 2
29 -2 38 -14 40 -51 4 -70 7 -102 16 -19 6 -30 10 -23 11 16 1 5 31 -11 31 -7
0 -17 -5 -24 -12z m142 -87 c7 -10 -18 -34 -27 -25 -7 8 3 34 13 34 5 0 11 -4
14 -9z"/>
<path d="M7879 5136 c-3 -3 -24 -6 -48 -7 -55 -4 -62 -18 -61 -122 2 -132 5
-143 46 -144 19 -1 34 3 34 8 0 5 -6 8 -12 7 -7 -2 -13 4 -13 12 0 8 5 14 12
13 7 -2 17 15 23 36 13 49 30 63 71 59 29 -3 34 0 42 29 5 18 18 33 29 36 28
8 12 27 -22 27 -19 0 -35 9 -48 25 -18 23 -42 32 -53 21z"/>
<path d="M5370 5120 c-9 -6 -10 -10 -3 -10 6 0 15 5 18 10 8 12 4 12 -15 0z"/>
<path d="M6155 5119 c-4 -6 -4 -13 -1 -16 3 -4 6 -1 6 5 0 6 8 13 18 15 15 4
15 5 0 6 -9 0 -20 -4 -23 -10z"/>
<path d="M5550 5110 c0 -5 5 -10 10 -10 6 0 10 5 10 10 0 6 -4 10 -10 10 -5 0
-10 -4 -10 -10z"/>
<path d="M6105 5110 c3 -5 10 -10 16 -10 5 0 9 5 9 10 0 6 -7 10 -16 10 -8 0
-12 -4 -9 -10z"/>
<path d="M6410 5094 c0 -14 -3 -23 -7 -21 -5 3 -8 -32 -8 -76 0 -45 2 -71 4
-57 3 23 4 24 12 5 4 -12 8 18 8 78 1 53 -1 97 -4 97 -3 0 -5 -12 -5 -26z"/>
<path d="M6582 5085 c-41 -22 -46 -32 -28 -51 19 -19 28 -14 31 19 2 12 8 21
15 19 7 -1 19 3 28 10 13 11 15 10 9 -6 -6 -14 -4 -17 9 -12 8 3 20 6 25 6 5
0 9 6 9 13 0 17 -68 18 -98 2z"/>
<path d="M6200 5080 c0 -5 9 -10 20 -10 11 0 20 5 20 10 0 6 -9 10 -20 10 -11
0 -20 -4 -20 -10z"/>
<path d="M5774 5067 c3 -10 6 -27 6 -38 0 -10 4 -19 9 -19 12 0 5 50 -10 64
-9 8 -10 7 -5 -7z"/>
<path d="M6711 5071 c-12 -8 -10 -12 12 -22 15 -7 27 -18 27 -26 0 -7 7 -13
16 -13 13 0 14 3 5 13 -6 8 -8 17 -4 20 3 4 0 7 -7 7 -7 0 -18 7 -24 15 -7 10
-16 12 -25 6z"/>
<path d="M6930 5067 c-23 -10 -21 -11 27 -17 29 -3 62 -13 73 -22 11 -10 28
-18 37 -18 14 0 12 4 -7 25 -13 14 -28 24 -34 23 -6 0 -24 4 -39 10 -16 7 -29
12 -30 11 -1 0 -13 -5 -27 -12z"/>
<path d="M6240 5046 c0 -7 6 -19 14 -25 10 -9 15 -8 20 4 3 9 0 15 -10 15 -8
0 -12 5 -9 10 3 6 1 10 -4 10 -6 0 -11 -6 -11 -14z"/>
<path d="M10027 5053 c-13 -12 -7 -33 8 -33 8 0 15 -6 15 -14 0 -16 24 -38 33
-30 8 8 -16 56 -36 72 -8 7 -17 9 -20 5z"/>
<path d="M5430 5040 c0 -13 11 -13 30 0 12 8 11 10 -7 10 -13 0 -23 -4 -23
-10z"/>
<path d="M5485 5030 c-16 -18 -16 -20 -2 -20 10 0 17 6 17 14 0 8 6 17 13 19
7 3 7 6 1 6 -6 1 -19 -8 -29 -19z"/>
<path d="M10462 5042 c-9 -7 -8 -13 8 -27 19 -17 22 -17 36 -3 28 28 -9 52
-44 30z"/>
<path d="M5825 5033 c15 -15 105 -27 105 -14 0 6 -18 11 -39 11 -22 0 -48 3
-58 6 -12 5 -15 4 -8 -3z"/>
<path d="M6023 5000 c0 -25 2 -35 4 -22 2 12 2 32 0 45 -2 12 -4 2 -4 -23z"/>
<path d="M6885 5030 c3 -5 8 -10 11 -10 2 0 4 5 4 10 0 6 -5 10 -11 10 -5 0
-7 -4 -4 -10z"/>
<path d="M6052 4990 c0 -19 2 -27 5 -17 2 9 2 25 0 35 -3 9 -5 1 -5 -18z"/>
<path d="M6526 4994 c-9 -25 -7 -34 8 -34 8 0 17 -6 19 -12 3 -7 6 -4 6 7 0
11 -6 28 -13 38 -12 16 -14 16 -20 1z"/>
<path d="M6880 5000 c0 -5 5 -10 10 -10 6 0 10 5 10 10 0 6 -4 10 -10 10 -5 0
-10 -4 -10 -10z"/>
<path d="M10002 4993 c2 -9 8 -18 15 -20 7 -3 9 3 6 16 -6 25 -26 28 -21 4z"/>
<path d="M1150 4960 c-29 -26 -54 -40 -72 -40 -31 0 -35 -15 -13 -44 15 -19
35 -14 35 10 0 14 11 18 38 15 6 -1 12 8 12 21 0 15 11 29 30 40 17 9 30 22
30 28 0 18 -14 11 -60 -30z"/>
<path d="M6281 4987 c-1 -11 -10 -21 -21 -24 -13 -3 -20 -14 -20 -29 0 -13 4
-24 8 -24 14 0 45 65 39 81 -4 10 -6 9 -6 -4z"/>
<path d="M1240 4970 c0 -6 -11 -21 -25 -34 -22 -20 -23 -25 -10 -36 8 -7 22
-9 31 -6 13 5 14 9 4 21 -10 12 -9 16 4 21 17 7 22 44 6 44 -5 0 -10 -5 -10
-10z"/>
<path d="M6912 4964 c11 -11 23 -14 39 -9 23 8 23 8 4 16 -11 4 -29 8 -40 8
-18 1 -18 0 -3 -15z"/>
<path d="M10543 4958 c-18 -22 -21 -58 -4 -58 4 0 16 9 26 20 23 25 45 26 45
2 0 -11 8 -26 18 -35 20 -18 47 -23 37 -7 -3 6 1 10 10 10 30 0 9 25 -23 28
-24 2 -32 8 -32 23 0 12 -10 23 -26 29 -32 13 -27 14 -51 -12z"/>
<path d="M5760 4952 c0 -12 19 -26 26 -19 2 2 -2 10 -11 17 -9 8 -15 8 -15 2z"/>
<path d="M10464 4945 c-3 -8 -3 -19 1 -25 9 -14 35 6 35 26 0 19 -29 18 -36
-1z"/>
<path d="M6950 4940 c0 -5 11 -10 24 -10 13 0 26 -7 30 -15 3 -8 12 -15 19
-15 21 0 46 -32 30 -37 -7 -3 -13 -10 -13 -17 0 -7 -17 -22 -37 -34 l-38 -22
38 0 c30 0 40 5 49 25 6 14 17 25 25 25 18 0 16 45 -3 65 -9 9 -29 19 -45 22
-16 3 -29 9 -29 14 0 5 -11 9 -25 9 -14 0 -25 -4 -25 -10z"/>
<path d="M8570 4924 c-13 -33 -13 -34 4 -34 14 0 26 21 26 46 0 23 -20 16 -30
-12z"/>
<path d="M10286 4916 c7 -19 38 -22 32 -3 -3 6 -12 13 -21 15 -12 2 -15 -1
-11 -12z"/>
<path d="M6022 4900 c0 -14 2 -19 5 -12 2 6 2 18 0 25 -3 6 -5 1 -5 -13z"/>
<path d="M6190 4900 c0 -5 7 -7 15 -4 8 4 15 8 15 10 0 2 -7 4 -15 4 -8 0 -15
-4 -15 -10z"/>
<path d="M10150 4899 c0 -5 5 -7 10 -4 6 3 10 8 10 11 0 2 -4 4 -10 4 -5 0
-10 -5 -10 -11z"/>
<path d="M1302 4867 c-7 -18 -12 -41 -12 -50 0 -19 26 -23 32 -5 3 8 9 8 24 0
10 -6 13 -12 6 -12 -11 0 -52 -78 -52 -100 0 -5 16 -6 35 -3 45 7 47 -12 5
-56 -25 -25 -29 -35 -20 -50 13 -26 -11 -51 -49 -51 -15 0 -31 -3 -34 -7 -4
-4 -26 -8 -49 -10 -54 -6 -86 -22 -67 -34 24 -15 87 -10 123 10 29 17 35 17
40 5 11 -29 33 -14 40 26 5 33 12 43 45 60 22 11 42 25 44 32 4 10 9 9 20 -4
8 -10 19 -18 26 -18 18 0 13 -15 -15 -46 -21 -24 -24 -35 -19 -69 3 -21 8 -41
10 -44 6 -5 45 29 43 38 -4 32 27 45 38 16 4 -8 12 -15 20 -15 16 0 18 41 5
109 -7 36 -5 52 10 80 20 37 26 91 10 91 -5 0 -11 -7 -15 -15 -11 -29 -28 -16
-21 15 5 24 3 31 -12 36 -10 3 -26 10 -35 15 -10 5 -40 9 -68 9 -40 0 -48 3
-44 15 7 18 -17 20 -34 3 -7 -7 -12 -8 -12 -2 0 6 5 15 10 20 11 11 4 44 -9
44 -4 0 -12 -15 -19 -33z m148 -117 c0 -5 -4 -10 -10 -10 -5 0 -10 5 -10 10 0
6 5 10 10 10 6 0 10 -4 10 -10z"/>
<path d="M10500 4890 c0 -5 5 -10 10 -10 6 0 10 5 10 10 0 6 -4 10 -10 10 -5
0 -10 -4 -10 -10z"/>
<path d="M6758 4883 c7 -3 16 -2 19 1 4 3 -2 6 -13 5 -11 0 -14 -3 -6 -6z"/>
<path d="M6411 4864 c0 -11 3 -14 6 -6 3 7 2 16 -1 19 -3 4 -6 -2 -5 -13z"/>
<path d="M10277 4873 c-13 -12 -7 -33 8 -33 8 0 15 9 15 20 0 20 -11 26 -23
13z"/>
<path d="M4916 4863 c-11 -11 -7 -133 5 -133 6 0 8 9 4 20 -4 12 -1 27 5 35
10 12 10 18 0 30 -10 12 -10 18 -1 29 12 14 0 32 -13 19z"/>
<path d="M6745 4860 c-3 -5 1 -10 10 -10 9 0 13 5 10 10 -3 6 -8 10 -10 10 -2
0 -7 -4 -10 -10z"/>
<path d="M1181 4846 c-8 -10 -9 -16 -1 -21 5 -3 13 1 16 10 9 22 -1 29 -15 11z"/>
<path d="M4856 4845 c-9 -26 -7 -32 5 -12 6 10 9 21 6 23 -2 3 -7 -2 -11 -11z"/>
<path d="M5060 4844 c0 -9 5 -14 12 -12 18 6 21 28 4 28 -9 0 -16 -7 -16 -16z"/>
<path d="M6600 4850 c0 -6 7 -10 15 -10 8 0 15 2 15 4 0 2 -7 6 -15 10 -8 3
-15 1 -15 -4z"/>
<path d="M10338 4835 c-12 -14 -27 -25 -34 -25 -12 0 -34 -29 -34 -44 0 -3 9
-6 20 -6 12 0 25 -13 36 -35 15 -32 34 -39 34 -12 0 6 12 21 28 34 27 22 27
22 10 53 -10 17 -18 38 -18 46 0 21 -18 17 -42 -11z"/>
<path d="M5167 4843 c-9 -14 -5 -83 4 -89 14 -8 23 24 11 39 -7 8 -7 18 -2 27
12 19 12 30 1 30 -6 0 -12 -3 -14 -7z"/>
<path d="M5287 4833 c-4 -3 -7 -24 -7 -46 0 -32 3 -38 16 -33 9 4 23 1 30 -5
11 -9 14 -7 14 9 0 12 5 24 10 27 12 8 13 25 1 25 -5 0 -11 -9 -14 -20 -3 -11
-12 -20 -21 -20 -21 0 -32 28 -17 43 6 6 11 15 11 19 0 10 -14 11 -23 1z"/>
<path d="M5068 4813 c-2 -5 -1 -28 3 -53 l6 -45 1 53 c2 48 -2 63 -10 45z"/>
<path d="M5410 4754 c0 -32 2 -55 5 -52 9 8 11 99 3 104 -4 3 -8 -21 -8 -52z"/>
<path d="M5471 4763 c1 -28 4 -38 6 -23 3 14 9 30 15 37 10 13 3 33 -13 33 -5
0 -8 -21 -8 -47z"/>
<path d="M5590 4755 c0 -44 -1 -44 -25 -35 l-26 10 18 -25 c34 -46 43 -40 43
30 0 36 -2 65 -5 65 -3 0 -5 -20 -5 -45z"/>
<path d="M5681 4781 c-15 -27 -14 -30 9 -24 21 6 27 28 11 38 -6 3 -15 -3 -20
-14z"/>
<path d="M9350 4778 c0 -19 2 -20 10 -8 13 19 13 30 0 30 -5 0 -10 -10 -10
-22z"/>
<path d="M10161 4784 c0 -11 3 -14 6 -6 3 7 2 16 -1 19 -3 4 -6 -2 -5 -13z"/>
<path d="M4804 4774 c3 -9 6 -18 6 -20 0 -13 19 -1 23 16 4 15 0 20 -15 20
-14 0 -18 -5 -14 -16z"/>
<path d="M5791 4728 c0 -54 2 -59 11 -36 8 23 13 26 27 18 25 -13 49 36 28 57
-12 12 -14 11 -13 -9 1 -17 -5 -23 -19 -23 -16 0 -20 6 -18 28 1 15 -2 27 -8
27 -5 0 -9 -28 -8 -62z"/>
<path d="M8543 4780 c-38 -16 -57 -72 -27 -84 10 -4 19 4 28 24 7 17 15 28 18
25 9 -9 30 23 23 35 -7 12 -12 12 -42 0z"/>
<path d="M10063 4773 c-7 -2 -13 -11 -13 -20 0 -20 34 -12 38 10 3 17 -3 20
-25 10z"/>
<path d="M5910 4765 c0 -6 5 -16 12 -23 6 -6 15 -31 19 -54 l6 -43 2 36 c0 20
8 42 16 49 22 18 18 32 -5 18 -16 -11 -22 -9 -34 7 -9 11 -16 15 -16 10z"/>
<path d="M6124 4752 c-6 -4 -16 -18 -23 -32 -12 -24 -11 -24 4 -5 8 11 23 26
32 33 18 13 6 17 -13 4z"/>
<path d="M5281 4724 c0 -11 3 -14 6 -6 3 7 2 16 -1 19 -3 4 -6 -2 -5 -13z"/>
<path d="M5650 4716 c-14 -38 -13 -39 11 -15 15 15 18 24 10 32 -7 7 -13 2
-21 -17z"/>
<path d="M5712 4728 c-8 -11 -6 -17 9 -26 15 -10 19 -10 19 0 0 7 -4 19 -9 26
-6 11 -10 10 -19 0z"/>
<path d="M10150 4730 c0 -5 5 -10 10 -10 6 0 10 5 10 10 0 6 -4 10 -10 10 -5
0 -10 -4 -10 -10z"/>
<path d="M5170 4720 c0 -5 5 -10 11 -10 5 0 7 5 4 10 -3 6 -8 10 -11 10 -2 0
-4 -4 -4 -10z"/>
<path d="M6358 4695 c2 -19 6 -35 8 -35 2 0 4 16 4 35 0 19 -4 35 -8 35 -4 0
-6 -16 -4 -35z"/>
<path d="M6410 4710 c0 -13 5 -20 13 -17 6 2 12 10 12 17 0 7 -6 15 -12 18 -8
2 -13 -5 -13 -18z"/>
<path d="M8557 4723 c-2 -5 -1 -17 3 -27 6 -19 7 -19 12 2 6 21 -6 40 -15 25z"/>
<path d="M9160 4719 c0 -5 5 -7 10 -4 6 3 10 8 10 11 0 2 -4 4 -10 4 -5 0 -10
-5 -10 -11z"/>
<path d="M6250 4677 c0 -25 4 -48 9 -51 8 -5 3 84 -5 93 -2 2 -4 -16 -4 -42z"/>
<path d="M6698 4713 c7 -3 16 -2 19 1 4 3 -2 6 -13 5 -11 0 -14 -3 -6 -6z"/>
<path d="M7811 4694 c-6 -14 -8 -30 -5 -36 4 -6 2 -13 -5 -17 -12 -8 -14 -33
-11 -190 2 -102 4 -115 23 -130 34 -25 100 -95 120 -124 22 -32 37 -35 37 -6
0 12 8 27 17 34 15 11 15 15 3 30 -11 13 -11 18 -1 24 9 6 8 11 -4 21 -19 16
-20 39 -1 46 9 3 14 22 14 53 0 26 7 62 16 79 24 47 21 80 -9 88 -14 3 -33 19
-42 34 -10 17 -28 30 -47 34 -36 8 -76 43 -76 68 0 26 -15 22 -29 -8z"/>
<path d="M6634 4685 c-4 -14 -4 -29 0 -32 3 -4 6 3 6 13 0 11 5 25 12 32 9 9
9 12 0 12 -6 0 -14 -11 -18 -25z"/>
<path d="M7951 4690 c-21 -12 -5 -42 21 -38 12 2 23 8 25 15 6 16 -30 34 -46
23z"/>
<path d="M4229 4657 c-18 -41 -6 -55 45 -55 25 0 69 -7 99 -16 53 -15 53 -16
56 -58 1 -23 7 -48 13 -56 33 -39 124 -58 318 -67 74 -3 212 -12 305 -21 245
-21 437 -35 540 -40 50 -2 108 -8 130 -13 22 -5 89 -9 149 -10 60 -1 112 -4
115 -5 3 -2 51 -7 106 -11 55 -3 152 -12 215 -20 63 -8 165 -17 225 -20 61 -4
114 -9 118 -12 5 -3 62 -6 127 -7 93 -1 122 -5 137 -17 27 -25 82 -14 94 18 5
14 21 34 35 45 31 25 24 33 -28 33 -43 0 -54 10 -38 35 14 23 112 20 139 -4
27 -25 27 -42 -2 -50 -34 -8 -73 -90 -58 -122 6 -13 15 -24 21 -24 5 0 28 24
51 53 23 28 44 53 48 55 14 5 60 -94 67 -145 8 -67 23 -89 46 -71 13 11 15 22
8 71 -5 33 -15 66 -23 75 -8 10 -23 33 -32 52 -10 19 -35 56 -57 81 -43 52
-47 72 -17 93 21 14 21 15 -12 20 -19 3 -101 10 -184 16 -82 5 -251 17 -375
25 -259 18 -566 41 -725 55 -60 6 -207 17 -325 25 -234 16 -602 46 -855 70
-88 8 -222 19 -297 25 -76 6 -144 13 -153 16 -9 4 -19 -3 -26 -19z"/>
<path d="M6510 4640 c-13 -8 -13 -11 1 -26 19 -18 30 -8 20 18 -4 12 -10 15
-21 8z"/>
<path d="M6582 4630 c0 -14 2 -19 5 -12 2 6 2 18 0 25 -3 6 -5 1 -5 -13z"/>
<path d="M8490 4608 c-18 -40 -18 -44 -3 -55 22 -17 25 -12 33 47 8 61 -5 64
-30 8z"/>
<path d="M8045 4610 c3 -5 10 -10 16 -10 5 0 9 5 9 10 0 6 -7 10 -16 10 -8 0
-12 -4 -9 -10z"/>
<path d="M10278 4603 c7 -3 16 -2 19 1 4 3 -2 6 -13 5 -11 0 -14 -3 -6 -6z"/>
<path d="M9067 4594 c-13 -14 5 -24 31 -18 44 10 50 24 11 24 -20 0 -39 -3
-42 -6z"/>
<path d="M210 4570 c38 -12 139 -12 120 0 -8 5 -44 9 -80 9 -48 -1 -58 -3 -40
-9z"/>
<path d="M9436 4573 c-4 -5 -14 -23 -21 -41 l-14 -32 -58 6 c-32 4 -59 8 -61
10 -2 1 4 14 14 29 l18 27 -45 -6 c-24 -4 -57 -8 -74 -10 -16 -2 -34 -4 -38
-5 -4 0 -4 -9 2 -18 7 -13 23 -18 54 -19 25 -1 55 -9 68 -18 13 -9 36 -16 51
-16 17 0 31 -7 38 -19 10 -19 11 -19 39 -3 24 14 31 26 36 65 7 49 4 63 -9 50z"/>
<path d="M1673 4523 c-7 -2 -13 -17 -13 -33 0 -31 16 -42 43 -28 21 11 22 54
1 62 -9 3 -16 6 -17 5 -1 0 -8 -3 -14 -6z"/>
<path d="M9685 4499 c-86 -8 -125 -17 -195 -44 -54 -22 -80 -43 -64 -53 6 -4
14 -14 17 -22 5 -13 6 -12 6 1 1 10 13 19 32 23 38 7 49 1 49 -25 0 -31 23
-17 34 20 5 19 15 31 23 29 17 -4 39 -42 48 -83 6 -29 7 -29 21 -11 19 26 18
31 -11 62 -28 30 -33 43 -10 24 12 -10 18 -10 30 0 8 7 15 18 15 25 0 17 44
35 86 35 24 0 34 4 32 13 -6 15 -15 16 -113 6z"/>
<path d="M10075 4500 c4 -6 11 -8 16 -5 14 9 11 15 -7 15 -8 0 -12 -5 -9 -10z"/>
<path d="M10160 4490 c0 -5 7 -10 16 -10 8 0 12 5 9 10 -3 6 -10 10 -16 10 -5
0 -9 -4 -9 -10z"/>
<path d="M8476 4464 c-4 -9 -4 -19 -1 -22 2 -3 7 3 11 12 4 9 4 19 1 22 -2 3
-7 -3 -11 -12z"/>
<path d="M9800 4450 c0 -5 5 -10 10 -10 6 0 10 5 10 10 0 6 -4 10 -10 10 -5 0
-10 -4 -10 -10z"/>
<path d="M9240 4435 c0 -8 -9 -20 -20 -27 -22 -14 -27 -58 -7 -58 14 0 47 60
47 85 0 8 -4 15 -10 15 -5 0 -10 -7 -10 -15z"/>
<path d="M8442 4386 c-34 -39 -37 -59 -9 -64 22 -4 49 41 45 74 l-3 28 -33
-38z"/>
<path d="M1390 4370 c0 -5 13 -10 29 -10 17 0 33 5 36 10 4 6 -8 10 -29 10
-20 0 -36 -4 -36 -10z"/>
<path d="M9485 4340 c-8 -14 3 -30 21 -30 8 0 14 9 14 20 0 21 -24 28 -35 10z"/>
<path d="M9300 4310 c0 -5 5 -10 10 -10 6 0 10 5 10 10 0 6 -4 10 -10 10 -5 0
-10 -4 -10 -10z"/>
<path d="M0 4236 l0 -61 25 28 c21 22 35 27 73 27 33 0 43 3 32 10 -13 8 -13
10 0 14 8 3 29 7 45 9 l30 3 -25 11 c-14 6 -60 12 -102 15 l-78 5 0 -61z"/>
<path d="M8167 4284 c-14 -14 -7 -25 13 -22 12 2 21 8 21 13 0 12 -24 18 -34
9z"/>
<path d="M9540 4280 c0 -5 5 -10 10 -10 6 0 10 5 10 10 0 6 -4 10 -10 10 -5 0
-10 -4 -10 -10z"/>
<path d="M261 4266 c2 -2 21 -6 42 -10 27 -5 37 -4 32 3 -3 6 -22 11 -42 11
-20 0 -34 -2 -32 -4z"/>
<path d="M7825 4191 c-3 -5 -1 -12 5 -16 5 -3 10 1 10 9 0 18 -6 21 -15 7z"/>
<path d="M8424 4169 c-16 -21 -37 -106 -29 -119 19 -31 54 62 43 115 -2 15 -5
16 -14 4z"/>
<path d="M9105 4130 c3 -5 8 -10 11 -10 2 0 4 5 4 10 0 6 -5 10 -11 10 -5 0
-7 -4 -4 -10z"/>
<path d="M9385 4130 c3 -5 11 -10 16 -10 6 0 7 5 4 10 -3 6 -11 10 -16 10 -6
0 -7 -4 -4 -10z"/>
<path d="M4113 4115 c-8 -23 3 -150 16 -174 10 -17 22 -20 113 -20 57 -1 117
-4 133 -8 17 -5 48 -8 70 -8 36 0 40 2 37 24 -1 14 -4 26 -6 28 -2 2 -49 5
-105 7 -55 1 -104 6 -108 10 -8 8 225 1 332 -9 28 -3 104 -9 170 -15 305 -26
348 -30 352 -34 2 -2 5 -17 6 -32 3 -32 -3 -30 124 -38 67 -4 98 4 73 19 -5 3
-10 14 -10 24 0 13 7 17 33 15 17 -2 82 -5 142 -9 61 -3 189 -12 285 -20 96
-8 243 -20 325 -25 424 -27 452 -31 438 -66 -2 -6 0 -15 6 -18 11 -7 103 -17
201 -22 36 -2 106 -8 155 -14 108 -13 102 -13 190 -12 64 2 230 -15 331 -32
39 -7 41 -9 54 -58 11 -45 14 -49 24 -31 6 10 23 35 39 55 15 19 27 38 27 42
0 3 11 24 24 45 32 51 48 107 33 119 -7 5 -102 14 -212 20 -110 6 -328 20
-485 31 -157 11 -359 25 -450 31 -161 11 -412 29 -675 50 -71 5 -220 17 -330
25 -110 9 -308 25 -440 36 -132 11 -296 24 -365 29 -164 12 -467 39 -508 46
-24 4 -34 1 -39 -11z m1177 -235 c0 -5 -9 -10 -20 -10 -11 0 -20 5 -20 10 0 6
9 10 20 10 11 0 20 -4 20 -10z m1330 -80 c13 -9 13 -10 0 -9 -8 0 -24 4 -35 9
l-20 9 20 0 c11 0 27 -4 35 -9z"/>
<path d="M7870 4065 c0 -8 4 -15 9 -15 5 0 11 7 15 15 3 9 0 15 -9 15 -8 0
-15 -7 -15 -15z"/>
<path d="M8530 4037 c0 -8 9 -22 19 -31 26 -23 39 -2 15 25 -20 22 -34 25 -34
6z"/>
<path d="M9066 4042 c-5 -9 22 -48 29 -41 2 3 2 15 -2 27 -5 22 -18 29 -27 14z"/>
<path d="M7580 4030 c0 -5 16 -12 36 -16 39 -7 104 -57 104 -80 0 -8 5 -14 10
-14 14 0 13 5 -9 41 -10 17 -35 42 -54 55 -36 24 -87 33 -87 14z"/>
<path d="M8982 4005 c-43 -15 -59 -32 -45 -46 14 -14 78 12 86 36 8 20 -3 23
-41 10z"/>
<path d="M0 3956 c0 -26 16 -36 60 -36 44 0 60 10 60 36 0 23 -3 24 -60 24
-57 0 -60 -1 -60 -24z"/>
<path d="M4547 3943 c-12 -11 -8 -43 6 -43 6 0 45 -5 85 -10 40 -5 129 -12
199 -16 101 -4 124 -3 121 8 -6 17 -150 36 -277 37 -69 1 -99 5 -111 16 -9 8
-20 12 -23 8z"/>
<path d="M4986 3883 c-6 -16 2 -19 61 -26 29 -3 46 -1 54 9 17 21 7 26 -55 28
-39 2 -57 -2 -60 -11z"/>
<path d="M8745 3879 c-10 -15 3 -25 16 -12 7 7 7 13 1 17 -6 3 -14 1 -17 -5z"/>
<path d="M5494 3856 c-3 -8 -3 -19 0 -24 3 -5 60 -12 127 -16 66 -4 126 -8
132 -9 6 -1 12 5 14 14 3 14 -6 17 -58 18 -33 1 -66 4 -71 8 -6 3 -29 7 -52 8
-23 1 -51 5 -64 9 -15 5 -24 3 -28 -8z"/>
<path d="M4539 3843 c-14 -15 -3 -20 59 -25 56 -5 55 15 -3 28 -36 8 -48 8
-56 -3z"/>
<path d="M5350 3850 c0 -13 48 -32 61 -24 23 14 8 34 -26 34 -19 0 -35 -5 -35
-10z"/>
<path d="M8559 3853 c-1 -4 -1 -11 0 -15 0 -5 -10 -8 -23 -8 -14 0 -30 -10
-40 -25 -22 -33 -20 -38 9 -31 18 5 25 2 25 -8 0 -8 -4 -18 -10 -21 -16 -10
-12 -35 6 -35 19 0 64 40 64 58 0 15 22 16 38 0 9 -9 12 -9 12 0 0 6 -6 15
-12 19 -7 4 -20 21 -28 37 -15 29 -39 46 -41 29z"/>
<path d="M5804 3835 c-15 -12 -16 -16 -5 -24 7 -5 21 -7 30 -4 9 2 35 -3 58
-11 22 -8 44 -12 48 -8 3 4 33 5 66 4 48 -3 59 0 59 12 0 13 -13 16 -62 17
-99 3 -141 8 -152 19 -13 13 -19 13 -42 -5z"/>
<path d="M4650 3820 c0 -5 12 -10 26 -10 14 0 23 4 19 10 -3 6 -15 10 -26 10
-10 0 -19 -4 -19 -10z"/>
<path d="M4753 3817 c-8 -13 -2 -15 52 -18 38 -3 50 -1 50 10 0 15 -93 22
-102 8z"/>
<path d="M4897 3823 c-16 -15 -6 -34 16 -32 12 1 30 -1 39 -5 9 -4 36 -3 60 2
l43 9 -63 7 c-34 5 -65 12 -68 17 -6 11 -18 12 -27 2z"/>
<path d="M6125 3810 c-7 -12 2 -30 16 -30 5 0 9 9 9 20 0 21 -15 27 -25 10z"/>
<path d="M6230 3810 c-8 -5 -27 -10 -42 -10 -16 0 -28 -4 -28 -9 0 -8 78 -17
256 -28 95 -5 118 3 94 32 -9 11 -16 11 -29 3 -16 -10 -183 2 -221 16 -8 3
-22 1 -30 -4z"/>
<path d="M5100 3795 c0 -15 25 -20 78 -15 12 1 22 -3 22 -9 0 -12 29 -15 54
-5 32 12 3 24 -59 24 -35 0 -67 5 -70 10 -9 15 -25 12 -25 -5z"/>
<path d="M5310 3770 c18 -12 83 -14 76 -2 -2 4 -24 9 -48 10 -31 2 -39 0 -28
-8z"/>
<path d="M4125 3760 c-11 -18 10 -33 34 -25 21 6 30 25 12 25 -5 0 -16 3 -24
6 -8 3 -18 0 -22 -6z"/>
<path d="M5533 3764 c-7 -3 -13 -10 -13 -15 0 -12 97 -12 105 1 3 6 0 10 -8
10 -8 0 -27 2 -43 5 -16 2 -35 2 -41 -1z"/>
<path d="M4227 3754 c-14 -14 -6 -24 19 -24 16 0 24 5 22 13 -5 14 -31 21 -41
11z"/>
<path d="M5672 3749 c3 -9 23 -15 59 -17 63 -2 49 13 -21 24 -34 6 -42 4 -38
-7z"/>
<path d="M4346 3741 c-4 -7 -5 -15 -2 -18 9 -9 19 4 14 18 -4 11 -6 11 -12 0z"/>
<path d="M5810 3741 c0 -6 3 -11 8 -12 4 0 17 -2 30 -3 13 -2 25 1 28 6 3 4
-1 8 -8 8 -7 0 -23 3 -35 6 -14 4 -23 2 -23 -5z"/>
<path d="M5965 3739 c-10 -15 0 -21 27 -17 l23 3 -22 13 c-15 8 -24 9 -28 1z"/>
<path d="M8245 3739 c-10 -15 3 -25 16 -12 7 7 7 13 1 17 -6 3 -14 1 -17 -5z"/>
<path d="M4413 3728 c2 -7 10 -13 17 -13 7 0 15 6 18 13 2 7 -5 12 -18 12 -13
0 -20 -5 -17 -12z"/>
<path d="M4465 3720 c3 -5 8 -10 11 -10 2 0 4 5 4 10 0 6 -5 10 -11 10 -5 0
-7 -4 -4 -10z"/>
<path d="M6025 3719 c4 -5 41 -9 83 -8 55 0 71 3 55 9 -29 12 -145 11 -138 -1z"/>
<path d="M4595 3710 c3 -5 26 -10 51 -10 24 0 44 5 44 10 0 6 -23 10 -51 10
-31 0 -48 -4 -44 -10z"/>
<path d="M6214 3705 c10 -8 23 -12 28 -9 14 9 -2 24 -25 24 -21 -1 -21 -1 -3
-15z"/>
<path d="M4764 3702 c3 -5 19 -9 36 -10 17 0 28 4 25 9 -4 5 -20 9 -36 9 -17
0 -28 -4 -25 -8z"/>
<path d="M5100 3682 c0 -14 11 -21 26 -15 8 3 11 9 8 14 -7 11 -34 12 -34 1z"/>
<path d="M4865 3620 c-3 -5 -1 -10 4 -10 6 0 11 5 11 10 0 6 -2 10 -4 10 -3 0
-8 -4 -11 -10z"/>
<path d="M5991 3614 c0 -11 3 -14 6 -6 3 7 2 16 -1 19 -3 4 -6 -2 -5 -13z"/>
<path d="M6800 3560 c0 -13 20 -13 40 0 12 8 9 10 -12 10 -16 0 -28 -4 -28
-10z"/>
<path d="M7058 3553 c7 -3 16 -2 19 1 4 3 -2 6 -13 5 -11 0 -14 -3 -6 -6z"/>
<path d="M6360 3510 c0 -5 5 -10 10 -10 6 0 10 5 10 10 0 6 -4 10 -10 10 -5 0
-10 -4 -10 -10z"/>
<path d="M7155 3470 c3 -5 12 -10 20 -10 8 0 17 5 20 10 4 6 -5 10 -20 10 -15
0 -24 -4 -20 -10z"/>
<path d="M7248 3463 c7 -3 16 -2 19 1 4 3 -2 6 -13 5 -11 0 -14 -3 -6 -6z"/>
<path d="M7379 3459 c16 -6 28 -6 35 1 7 7 -1 10 -24 9 -33 0 -34 -1 -11 -10z"/>
<path d="M7725 3410 c-8 -13 3 -30 21 -30 18 0 18 14 0 29 -10 8 -16 9 -21 1z"/>
<path d="M4081 3104 c0 -11 3 -14 6 -6 3 7 2 16 -1 19 -3 4 -6 -2 -5 -13z"/>
<path d="M5681 3104 c0 -11 3 -14 6 -6 3 7 2 16 -1 19 -3 4 -6 -2 -5 -13z"/>
<path d="M6240 3080 c0 -5 5 -10 10 -10 6 0 10 5 10 10 0 6 -4 10 -10 10 -5 0
-10 -4 -10 -10z"/>
<path d="M4113 2998 c-27 -9 -33 -17 -42 -57 -10 -41 -12 -80 -11 -146 1 -11
1 -54 0 -95 -1 -75 -1 -75 37 -107 37 -32 63 -42 63 -25 0 5 11 14 25 20 14 6
25 19 25 27 0 24 40 97 66 122 13 12 24 30 24 40 1 10 7 29 15 43 8 14 14 48
15 76 0 40 -5 55 -22 72 -45 41 -122 53 -195 30z m153 -83 c30 -30 24 -45 -19
-45 -32 0 -101 20 -113 33 -16 16 20 37 63 37 34 0 50 -6 69 -25z m-126 -96
c0 -11 -27 -12 -34 0 -3 4 -3 11 0 14 8 8 34 -3 34 -14z m78 -24 c-8 -8 -58 5
-58 15 0 15 35 17 49 4 8 -8 12 -16 9 -19z m-83 -65 c3 -5 1 -10 -4 -10 -6 0
-11 5 -11 10 0 6 2 10 4 10 3 0 8 -4 11 -10z"/>
<path d="M4760 2500 c0 -11 6 -20 14 -20 9 0 12 7 9 20 -3 11 -9 20 -14 20 -5
0 -9 -9 -9 -20z"/>
<path d="M3830 2395 c-7 -9 -15 -39 -18 -68 -6 -70 -23 -83 -70 -51 -55 38
-65 30 -68 -51 -1 -38 0 -61 3 -50 7 25 49 65 69 65 17 0 19 -16 3 -26 -8 -5
-10 -30 -5 -81 4 -55 2 -83 -9 -110 -17 -39 -20 -103 -6 -103 12 0 37 114 40
188 1 7 12 17 26 22 14 5 25 17 25 26 0 32 42 154 53 154 8 0 8 3 2 8 -6 4
-10 25 -10 46 0 43 -15 56 -35 31z"/>
<path d="M7320 2235 c0 -3 9 -22 20 -42 22 -41 26 -34 9 16 -6 17 -15 31 -20
31 -5 0 -9 -2 -9 -5z"/>
<path d="M3908 1913 c7 -3 16 -2 19 1 4 3 -2 6 -13 5 -11 0 -14 -3 -6 -6z"/>
<path d="M5670 1903 c0 -13 5 -23 10 -23 13 0 13 11 0 30 -8 12 -10 11 -10 -7z"/>
<path d="M7501 1884 c-17 -14 -31 -30 -31 -35 0 -17 25 -9 38 12 8 12 19 18
28 15 8 -3 14 1 14 9 0 26 -18 25 -49 -1z"/>
<path d="M4190 1810 c0 -5 5 -10 11 -10 5 0 7 5 4 10 -3 6 -8 10 -11 10 -2 0
-4 -4 -4 -10z"/>
<path d="M7203 1812 c-13 -2 -23 -7 -23 -12 0 -12 22 -17 49 -11 19 5 21 8 10
17 -8 5 -24 8 -36 6z"/>
<path d="M6587 1683 c-13 -12 -7 -33 8 -33 8 0 15 9 15 20 0 20 -11 26 -23 13z"/>
<path d="M5440 670 c0 -6 7 -10 15 -10 8 0 15 2 15 4 0 2 -7 6 -15 10 -8 3
-15 1 -15 -4z"/>
<path d="M6297 674 c-10 -11 3 -24 24 -24 23 0 25 15 3 24 -19 7 -19 7 -27 0z"/>
<path d="M6255 573 c-31 -8 -40 -20 -25 -38 16 -19 140 -21 158 -3 22 22 12
34 -30 34 -24 0 -52 3 -63 6 -11 4 -29 4 -40 1z"/>
<path d="M5572 549 c2 -7 10 -15 17 -17 8 -3 12 1 9 9 -2 7 -10 15 -17 17 -8
3 -12 -1 -9 -9z"/>
<path d="M5490 520 l-25 -20 27 0 c29 0 46 16 32 30 -5 5 -20 0 -34 -10z"/>
<path d="M7188 533 c-36 -9 -17 -23 31 -23 53 0 75 14 38 24 -24 6 -43 6 -69
-1z"/>
<path d="M4803 513 c-7 -2 -13 -11 -13 -19 0 -10 15 -14 60 -14 33 0 60 2 60
5 0 2 -13 11 -30 20 -29 15 -54 18 -77 8z"/>
<path d="M6565 510 c3 -6 24 -10 46 -10 52 0 42 16 -11 18 -25 1 -39 -2 -35
-8z"/>
<path d="M4588 463 c-45 -23 -30 -43 32 -43 57 0 76 20 43 46 -22 17 -40 16
-75 -3z"/>
<path d="M4040 394 c0 -8 5 -12 10 -9 6 4 8 11 5 16 -9 14 -15 11 -15 -7z"/>
<path d="M7076 370 c-23 -49 -44 -58 -56 -25 -5 14 -17 25 -25 25 -13 0 -14
-3 -3 -22 7 -13 13 -30 14 -38 3 -39 48 -150 63 -154 13 -4 273 -1 304 3 4 1
7 7 7 15 0 16 -21 26 -56 26 -14 0 -23 4 -19 9 3 6 -4 15 -15 21 -23 12 -27
50 -6 50 45 0 23 50 -31 69 -21 8 -61 24 -90 37 -28 13 -55 24 -60 24 -4 0
-16 -18 -27 -40z m124 -160 c0 -5 -5 -10 -11 -10 -5 0 -7 5 -4 10 3 6 8 10 11
10 2 0 4 -4 4 -10z"/>
<path d="M5702 383 c4 -21 33 -25 33 -3 0 8 -8 16 -18 18 -14 3 -18 -1 -15
-15z"/>
<path d="M6325 384 c16 -8 38 -23 48 -31 19 -18 37 -9 19 9 -17 17 -15 26 6
31 9 3 -10 5 -43 6 l-60 1 30 -16z"/>
<path d="M5085 381 l-30 -6 36 -28 c20 -15 41 -27 45 -26 5 1 18 1 29 0 20 -2
20 -2 1 -16 -20 -15 -20 -28 9 -171 6 -27 35 -33 134 -27 150 10 185 17 189
37 3 16 0 18 -22 12 -30 -7 -36 10 -6 19 24 8 26 41 6 90 -14 32 -18 34 -67
37 -34 2 -54 8 -59 18 -23 50 -29 55 -61 58 l-34 2 28 -15 c29 -17 34 -34 15
-53 -16 -16 -70 -15 -92 1 -17 12 -16 15 13 38 17 13 31 27 31 32 0 8 -122 7
-165 -2z"/>
<path d="M5780 381 c0 -5 12 -19 28 -31 15 -12 23 -23 17 -26 -35 -16 -35 -18
-22 -110 l12 -89 65 -3 c89 -5 195 7 182 20 -5 5 -45 14 -88 19 -94 12 -116
25 -85 50 12 10 21 22 21 28 0 14 27 14 36 0 4 -7 23 -9 51 -5 43 6 44 5 41
-22 -2 -21 2 -28 20 -30 16 -3 22 -10 22 -28 0 -21 5 -24 35 -24 38 0 47 15
15 25 -22 7 -27 31 -8 37 9 3 8 16 -2 52 -19 69 -29 76 -116 76 -60 0 -79 4
-95 19 -12 11 -18 24 -15 29 3 6 -1 13 -10 16 -25 9 -104 7 -104 -3z"/>
<path d="M6495 366 c-49 -15 -83 -36 -90 -54 -3 -8 6 -41 19 -75 13 -34 26
-70 30 -80 5 -15 21 -17 143 -17 76 0 143 4 149 8 8 5 5 28 -9 80 -17 64 -22
73 -41 71 -11 -2 -32 3 -46 11 -14 8 -52 14 -84 15 -71 0 -91 22 -24 27 24 2
42 8 41 13 -3 15 -43 16 -88 1z m25 -176 c0 -5 -4 -10 -10 -10 -5 0 -10 5 -10
10 0 6 5 10 10 10 6 0 10 -4 10 -10z"/>
<path d="M4614 345 c-4 -8 -16 -15 -29 -15 -12 0 -37 -3 -54 -6 -31 -6 -31 -7
-31 -66 0 -32 -7 -75 -15 -94 l-14 -35 34 -15 c25 -10 77 -14 190 -14 171 0
184 5 150 56 -9 14 -14 33 -10 41 12 32 -15 77 -65 111 -60 39 -64 39 -56 7 7
-28 -5 -33 -24 -10 -9 11 -10 18 -1 28 15 19 4 27 -36 27 -21 0 -36 -6 -39
-15z m38 -43 c16 -16 6 -23 -39 -32 -49 -8 -63 -3 -63 23 0 20 5 22 45 22 25
-1 50 -6 57 -13z m-53 -131 c12 -21 5 -31 -20 -31 -16 0 -29 19 -29 41 0 17
39 9 49 -10z m204 -30 c8 -8 -7 -11 -60 -11 -40 0 -74 4 -78 9 -12 21 117 23
138 2z"/>
<path d="M2981 269 c-12 -20 -19 -21 -76 -16 -42 4 -68 2 -78 -6 -18 -14 -92
-185 -84 -193 3 -3 81 -6 173 -6 125 0 170 4 180 14 7 7 27 49 45 92 30 76 30
80 13 93 -10 7 -23 13 -30 13 -7 0 -17 7 -21 15 -7 11 -16 13 -40 6 -17 -5
-36 -5 -44 0 -20 12 -23 11 -38 -12z"/>
<path d="M2118 248 c-37 -21 -88 -99 -88 -134 0 -9 -7 -25 -16 -35 -29 -32
-11 -49 46 -44 28 3 81 1 118 -5 62 -8 185 0 199 14 3 3 0 12 -7 21 -9 11 -31
15 -77 15 -47 0 -64 3 -61 13 3 8 32 13 86 15 l81 3 12 37 c6 20 15 41 20 46
5 6 9 20 9 33 0 23 0 24 -122 21 -76 -1 -131 2 -143 9 -17 9 -28 7 -57 -9z"/>
<path d="M1614 236 c-7 -10 -33 -11 -122 -4 -128 11 -162 3 -190 -41 -9 -14
-22 -30 -29 -34 -7 -4 -13 -16 -13 -25 0 -10 -4 -22 -9 -28 -16 -17 -23 -81
-9 -86 19 -6 178 -2 281 7 l88 7 35 74 c46 98 47 114 8 130 -24 10 -32 10 -40
0z m-19 -116 c3 -5 -1 -10 -9 -10 -9 0 -16 5 -16 10 0 6 4 10 9 10 6 0 13 -4
16 -10z"/>
<path d="M70 230 c-8 -5 -27 -11 -43 -15 -23 -5 -27 -10 -27 -40 0 -25 4 -33
14 -29 8 3 17 1 21 -5 17 -29 48 12 50 67 0 17 1 32 0 31 0 0 -7 -4 -15 -9z"/>
<path d="M710 217 c-36 -4 -81 -8 -100 -8 -59 0 -76 -7 -113 -45 -35 -36 -37
-37 -109 -35 -81 2 -128 -10 -128 -34 0 -18 21 -20 37 -4 16 16 103 2 103 -16
0 -7 -17 -20 -37 -28 -32 -13 -43 -13 -77 -1 -36 13 -40 13 -53 -6 -8 -11 -24
-20 -36 -20 -12 0 -29 -5 -37 -11 -11 -7 82 -9 318 -6 236 3 336 8 346 16 8 7
18 26 21 42 4 16 12 32 18 36 16 10 51 112 43 121 -9 9 -119 8 -196 -1z m-284
-155 c-15 -15 -16 -15 -16 5 0 12 6 23 13 26 19 6 21 -13 3 -31z"/>
<path d="M8037 224 c-14 -14 -6 -22 31 -27 45 -8 110 6 77 16 -40 12 -101 18
-108 11z"/>
<path d="M1068 123 c7 -3 16 -2 19 1 4 3 -2 6 -13 5 -11 0 -14 -3 -6 -6z"/>
<path d="M3467 103 c-12 -11 -8 -23 8 -23 8 0 15 7 15 15 0 16 -12 20 -23 8z"/>
<path d="M0 53 l0 -48 20 44 c24 53 24 51 0 51 -17 0 -20 -7 -20 -47z"/>
<path d="M1160 30 c0 -5 5 -10 10 -10 6 0 10 5 10 10 0 6 -4 10 -10 10 -5 0
-10 -4 -10 -10z"/>
<path d="M2398 33 c7 -3 16 -2 19 1 4 3 -2 6 -13 5 -11 0 -14 -3 -6 -6z"/>
<path d="M60 10 c0 -5 5 -10 11 -10 5 0 7 5 4 10 -3 6 -8 10 -11 10 -2 0 -4
-4 -4 -10z"/>
</g>
</svg>
